<svg width="86" height="86" viewBox="0 0 86 86" fill="none" xmlns="http://www.w3.org/2000/svg">
<g clip-path="url(#clip0_572_13898)">
<rect width="86" height="86" rx="43" fill="white"/>
<rect width="200" height="200" transform="translate(-10 -52)" fill="white"/>
<path fill-rule="evenodd" clip-rule="evenodd" d="M25.6227 30.287C34.5395 23.9329 47.0753 15 65.8032 15C98.0385 15 108.543 25.8063 108.543 25.8063C108.543 25.8063 124.16 43.4379 134.846 42.0422C151.057 39.9248 167 45.2711 167 59.1727C167 73.9943 162.914 78.337 149.066 81.3442C136.053 84.1701 109.657 77.6227 95.6571 66.33C91.134 62.6815 88.2709 59.8239 86.0697 57.627C81.458 53.024 79.7519 51.3212 71.7714 51.3212C64.3709 51.3212 58.3522 55.8447 52.7095 60.0855C49.3631 62.6006 46.1489 65.0162 42.8571 66.33C34.015 69.8589 26.0137 72.1689 20.119 64.4052C14.2242 56.6415 7.59267 47.4668 20.119 34.0564C21.7896 33.0184 23.6144 31.7181 25.6227 30.287L25.6227 30.287ZM23.5737 50.5181C24.742 50.5181 25.6891 49.4339 25.6891 48.0964C25.6891 46.759 24.742 45.6747 23.5737 45.6747C22.4054 45.6747 21.4583 46.759 21.4583 48.0964C21.4583 49.4339 22.4054 50.5181 23.5737 50.5181ZM41.7666 48.0964C41.7666 49.4339 40.8195 50.5181 39.6513 50.5181C38.483 50.5181 37.5359 49.4339 37.5359 48.0964C37.5359 46.759 38.483 45.6747 39.6513 45.6747C40.8195 45.6747 41.7666 46.759 41.7666 48.0964ZM29.0651 55.0166C28.8655 54.4929 28.2586 54.2227 27.7097 54.4131C27.1607 54.6036 26.8775 55.1825 27.0771 55.7062C28.5641 59.6074 34.3474 59.6074 35.8344 55.7062C36.034 55.1825 35.7508 54.6036 35.2018 54.4131C34.6528 54.2227 34.046 54.4929 33.8463 55.0166C33.0345 57.1465 29.877 57.1465 29.0651 55.0166Z" fill="#2B00D6"/>
</g>
<defs>
<clipPath id="clip0_572_13898">
<rect width="86" height="86" rx="43" fill="white"/>
</clipPath>
</defs>
</svg>
