<svg width="200" height="200" viewBox="0 0 200 200" fill="none" xmlns="http://www.w3.org/2000/svg">
<path fill-rule="evenodd" clip-rule="evenodd" d="M133.554 83.8536C133.559 83.6346 133.561 83.4151 133.561 83.1951C133.561 65.4142 118.885 51 100.78 51C82.6763 51 68 65.4142 68 83.1951C68 83.495 68.0042 83.794 68.0125 84.0919C65.8974 83.8861 63.9386 83.7812 62.1951 83.7812C44.4142 83.7812 30 98.1955 30 115.976C30 133.757 44.4142 148.171 62.1951 148.171C71.9065 148.171 88.2965 142.824 101.173 135.074C114.509 142.711 129.387 148.171 137.804 148.171C155.585 148.171 169.999 133.757 169.999 115.976C169.999 98.1955 155.585 83.7812 137.804 83.7812C136.527 83.7812 135.101 83.8043 133.554 83.8536Z" fill="#B8DE2A"/>
<path fill-rule="evenodd" clip-rule="evenodd" d="M95.8232 92.0756C96.472 91.8397 97.1892 92.1744 97.4251 92.8232C98.3845 95.4617 102.116 95.4617 103.076 92.8232C103.312 92.1744 104.029 91.8397 104.678 92.0756C105.326 92.3115 105.661 93.0287 105.425 93.6775C103.668 98.5102 96.8329 98.5102 95.0756 93.6775C94.8397 93.0287 95.1744 92.3115 95.8232 92.0756Z" fill="black"/>
<path fill-rule="evenodd" clip-rule="evenodd" d="M112.559 83.1181C112.559 83.1181 112.559 83.1181 112.559 83.1181L112.494 83.1507C112.451 83.1724 112.387 83.2044 112.306 83.2454C112.144 83.3274 111.912 83.4453 111.634 83.5885C111.076 83.8751 110.334 84.2613 109.595 84.6617C109.065 84.9488 108.546 85.238 108.1 85.5001C108.546 85.7622 109.065 86.0514 109.595 86.3385C110.334 86.7389 111.076 87.1251 111.634 87.4118C111.912 87.5549 112.144 87.6728 112.306 87.7549C112.387 87.7959 112.451 87.8278 112.494 87.8495L112.558 87.8817C112.558 87.8817 112.558 87.8817 112.558 87.8817C113.175 88.1904 113.426 88.9417 113.118 89.5591C112.809 90.1766 112.058 90.4269 111.441 90.1181L112 89.0001C111.441 90.1181 111.441 90.1182 111.441 90.1181L111.371 90.0831C111.326 90.0605 111.261 90.0276 111.178 89.9856C111.012 89.9016 110.775 89.7812 110.491 89.6353C109.924 89.3439 109.165 88.9488 108.404 88.5367C107.648 88.1272 106.871 87.6905 106.275 87.3179C105.981 87.1344 105.7 86.9473 105.482 86.7741C105.376 86.6904 105.247 86.5806 105.133 86.4523C105.076 86.3881 104.996 86.2903 104.925 86.1633C104.861 86.0485 104.75 85.8139 104.75 85.5001C104.75 85.1863 104.861 84.9517 104.925 84.8369C104.996 84.7099 105.076 84.6121 105.133 84.5479C105.247 84.4196 105.376 84.3098 105.482 84.2261C105.7 84.0529 105.981 83.8658 106.275 83.6823C106.871 83.3097 107.648 82.873 108.404 82.4635C109.165 82.0514 109.924 81.6563 110.491 81.3649C110.775 81.219 111.012 81.0986 111.178 81.0146C111.261 80.9726 111.326 80.9397 111.371 80.9171L111.44 80.8823C111.44 80.8822 111.441 80.8821 112 82.0001L111.44 80.8823C112.058 80.5735 112.809 80.8236 113.118 81.4411C113.426 82.0586 113.176 82.8094 112.559 83.1181Z" fill="black"/>
<path fill-rule="evenodd" clip-rule="evenodd" d="M86.6913 87.8823C86.6913 87.8823 86.6913 87.8823 86.6913 87.8823L86.7562 87.8498C86.7992 87.8281 86.8627 87.7961 86.9438 87.7551C87.1059 87.6731 87.3379 87.5552 87.6164 87.412C88.1743 87.1253 88.9157 86.7392 89.6549 86.3388C90.185 86.0517 90.7041 85.7625 91.1501 85.5004C90.7041 85.2383 90.185 84.9491 89.6549 84.662C88.9157 84.2616 88.1743 83.8754 87.6164 83.5887C87.3379 83.4456 87.1059 83.3276 86.9438 83.2456C86.8627 83.2046 86.7992 83.1726 86.7562 83.151L86.6921 83.1188C86.6921 83.1188 86.6921 83.1188 86.6921 83.1188C86.0746 82.8101 85.8235 82.0588 86.1322 81.4414C86.441 80.8239 87.1918 80.5736 87.8093 80.8823L87.2503 82.0004C87.8093 80.8823 87.8092 80.8823 87.8093 80.8823L87.8792 80.9174C87.924 80.9399 87.9894 80.9729 88.0724 81.0149C88.2384 81.0989 88.4752 81.2193 88.7591 81.3652C89.3262 81.6566 90.0849 82.0517 90.8456 82.4638C91.6017 82.8733 92.3791 83.3099 92.9753 83.6826C93.2688 83.866 93.5495 84.0532 93.7683 84.2264C93.874 84.3101 94.003 84.4198 94.1172 84.5482C94.1742 84.6124 94.2537 84.7102 94.3246 84.8371C94.3887 84.952 94.5003 85.1866 94.5003 85.5004C94.5003 85.8142 94.3887 86.0488 94.3246 86.1636C94.2537 86.2906 94.1742 86.3884 94.1172 86.4525C94.003 86.5809 93.874 86.6907 93.7683 86.7744C93.5495 86.9476 93.2688 87.1347 92.9753 87.3182C92.3791 87.6908 91.6017 88.1275 90.8456 88.537C90.0849 88.9491 89.3262 89.3442 88.7591 89.6356C88.4752 89.7815 88.2384 89.9019 88.0724 89.9859C87.9894 90.0279 87.924 90.0608 87.8792 90.0834L87.8097 90.1182C87.8096 90.1182 87.8093 90.1184 87.2503 89.0004L87.8097 90.1182C87.1922 90.4269 86.441 90.1769 86.1322 89.5594C85.8235 88.9419 86.0738 88.1911 86.6913 87.8823Z" fill="black"/>
</svg>
