<svg width="200" height="200" viewBox="0 0 200 200" fill="none" xmlns="http://www.w3.org/2000/svg">
<path fill-rule="evenodd" clip-rule="evenodd" d="M79 135.081C73.3709 143.095 65.8114 148 57.5 148C40.103 148 26 126.51 26 100C26 73.4903 40.103 52 57.5 52C65.8114 52 73.3709 56.905 79 64.919C84.6291 56.905 92.1886 52 100.5 52C108.811 52 116.371 56.905 122 64.919C127.629 56.905 135.189 52 143.5 52C160.897 52 175 73.4903 175 100C175 126.51 160.897 148 143.5 148C135.189 148 127.629 143.095 122 135.081C116.371 143.095 108.811 148 100.5 148C92.1886 148 84.6291 143.095 79 135.081Z" fill="#FF521D"/>
<ellipse cx="91.5" cy="88" rx="2.5" ry="3" fill="white"/>
<ellipse cx="110.5" cy="88" rx="2.5" ry="3" fill="white"/>
<path fill-rule="evenodd" clip-rule="evenodd" d="M94.1751 99.5732C93.9392 98.9244 93.222 98.5897 92.5732 98.8256C91.9244 99.0615 91.5897 99.7787 91.8256 100.428C93.305 104.496 98.3827 105.139 101 102.358C103.618 105.139 108.696 104.496 110.175 100.428C110.411 99.7787 110.076 99.0615 109.428 98.8256C108.779 98.5897 108.062 98.9244 107.826 99.5732C106.867 102.209 103.141 102.212 102.178 99.5805C102.173 99.5663 102.167 99.5521 102.162 99.538C102.097 99.3752 102.002 99.2332 101.884 99.1163C101.768 98.9992 101.625 98.9037 101.463 98.839C101.383 98.8071 101.299 98.7833 101.214 98.7685C101.07 98.7434 100.926 98.7443 100.787 98.7685C100.702 98.7833 100.618 98.8071 100.538 98.839C100.375 98.9037 100.233 98.9993 100.116 99.1164C99.9991 99.2333 99.9036 99.3753 99.839 99.538C99.8334 99.5521 99.828 99.5663 99.8229 99.5805C98.8592 102.212 95.1336 102.209 94.1751 99.5732Z" fill="white"/>
</svg>
