<svg width="200" height="210" viewBox="0 0 200 210" fill="none" xmlns="http://www.w3.org/2000/svg">
<rect width="200" height="210" fill="white"/>
<path fill-rule="evenodd" clip-rule="evenodd" d="M133.554 88.0461C133.559 87.8162 133.561 87.5857 133.561 87.3547C133.561 68.6848 118.885 53.5498 100.78 53.5498C82.6763 53.5498 68 68.6848 68 87.3547C68 87.6696 68.0042 87.9835 68.0125 88.2963C65.8974 88.0802 63.9386 87.9701 62.1951 87.9701C44.4142 87.9701 30 103.105 30 121.775C30 140.445 44.4142 155.58 62.1951 155.58C71.9065 155.58 88.2965 149.965 101.173 141.827C114.509 149.846 129.387 155.58 137.804 155.58C155.585 155.58 169.999 140.445 169.999 121.775C169.999 103.105 155.585 87.9701 137.804 87.9701C136.527 87.9701 135.101 87.9943 133.554 88.0461Z" fill="#B8DE2A"/>
<path fill-rule="evenodd" clip-rule="evenodd" d="M95.8232 96.679C96.472 96.4313 97.1892 96.7827 97.4251 97.4639C98.3845 100.234 102.116 100.234 103.076 97.4639C103.312 96.7827 104.029 96.4313 104.678 96.679C105.326 96.9267 105.661 97.6798 105.425 98.361C103.668 103.435 96.8329 103.435 95.0756 98.361C94.8397 97.6798 95.1744 96.9267 95.8232 96.679Z" fill="black"/>
<path fill-rule="evenodd" clip-rule="evenodd" d="M112.559 87.2737C112.559 87.2737 112.559 87.2737 112.559 87.2737L112.494 87.3079C112.451 87.3306 112.387 87.3642 112.306 87.4072C112.144 87.4933 111.912 87.6172 111.634 87.7675C111.076 88.0685 110.334 88.474 109.595 88.8944C109.065 89.1959 108.546 89.4995 108.1 89.7747C108.546 90.0499 109.065 90.3536 109.595 90.655C110.334 91.0755 111.076 91.4809 111.634 91.782C111.912 91.9323 112.144 92.0561 112.306 92.1422C112.387 92.1853 112.451 92.2189 112.494 92.2416L112.558 92.2754C112.558 92.2754 112.558 92.2754 112.558 92.2754C113.175 92.5995 113.426 93.3883 113.118 94.0367C112.809 94.685 112.058 94.9478 111.441 94.6237L112 93.4497C111.441 94.6237 111.441 94.6237 111.441 94.6237L111.371 94.5868C111.326 94.5632 111.261 94.5286 111.178 94.4845C111.012 94.3963 110.775 94.2699 110.491 94.1167C109.924 93.8107 109.165 93.3958 108.404 92.9632C107.648 92.5332 106.871 92.0747 106.275 91.6834C105.981 91.4908 105.7 91.2943 105.482 91.1124C105.376 91.0246 105.247 90.9093 105.133 90.7745C105.076 90.7071 104.996 90.6045 104.925 90.4711C104.861 90.3505 104.75 90.1042 104.75 89.7747C104.75 89.4453 104.861 89.1989 104.925 89.0783C104.996 88.945 105.076 88.8423 105.133 88.775C105.247 88.6402 105.376 88.5249 105.482 88.437C105.7 88.2551 105.981 88.0587 106.275 87.866C106.871 87.4748 107.648 87.0163 108.404 86.5863C109.165 86.1536 109.924 85.7387 110.491 85.4327C110.775 85.2795 111.012 85.1532 111.178 85.065C111.261 85.0209 111.326 84.9863 111.371 84.9626L111.44 84.926C111.44 84.926 111.441 84.9258 112 86.0997L111.44 84.926C112.058 84.6018 112.809 84.8644 113.118 85.5128C113.426 86.1611 113.176 86.9495 112.559 87.2737Z" fill="black"/>
<path fill-rule="evenodd" clip-rule="evenodd" d="M86.6913 92.2761C86.6913 92.2761 86.6913 92.2761 86.6913 92.2761L86.7562 92.2419C86.7992 92.2192 86.8627 92.1856 86.9438 92.1426C87.1059 92.0565 87.3379 91.9326 87.6164 91.7823C88.1743 91.4813 88.9157 91.0758 89.6549 90.6554C90.185 90.3539 90.7041 90.0503 91.1501 89.7751C90.7041 89.4999 90.185 89.1962 89.6549 88.8948C88.9157 88.4743 88.1743 88.0689 87.6164 87.7679C87.3379 87.6175 87.1059 87.4937 86.9438 87.4076C86.8627 87.3645 86.7992 87.331 86.7562 87.3082L86.6921 87.2744C86.6921 87.2744 86.6921 87.2744 86.6921 87.2744C86.0746 86.9503 85.8235 86.1615 86.1322 85.5131C86.441 84.8648 87.1918 84.602 87.8093 84.9261L87.2503 86.1001C87.8093 84.9261 87.8092 84.9261 87.8093 84.9261L87.8792 84.963C87.924 84.9866 87.9894 85.0212 88.0724 85.0653C88.2384 85.1535 88.4752 85.2799 88.7591 85.4331C89.3262 85.7391 90.0849 86.154 90.8456 86.5866C91.6017 87.0166 92.3791 87.4751 92.9753 87.8664C93.2688 88.059 93.5495 88.2555 93.7683 88.4374C93.874 88.5252 94.003 88.6405 94.1172 88.7753C94.1742 88.8427 94.2537 88.9454 94.3246 89.0787C94.3887 89.1993 94.5003 89.4456 94.5003 89.7751C94.5003 90.1046 94.3887 90.3509 94.3246 90.4715C94.2537 90.6048 94.1742 90.7075 94.1172 90.7749C94.003 90.9096 93.874 91.0249 93.7683 91.1128C93.5495 91.2947 93.2688 91.4911 92.9753 91.6838C92.3791 92.075 91.6017 92.5335 90.8456 92.9635C90.0849 93.3962 89.3262 93.8111 88.7591 94.1171C88.4752 94.2703 88.2384 94.3966 88.0724 94.4848C87.9894 94.529 87.924 94.5635 87.8792 94.5872L87.8097 94.6238C87.8096 94.6238 87.8093 94.624 87.2503 93.4501L87.8097 94.6238C87.1922 94.948 86.441 94.6854 86.1322 94.0371C85.8235 93.3887 86.0738 92.6003 86.6913 92.2761Z" fill="black"/>
</svg>
