<svg width="200" height="200" viewBox="0 0 200 200" fill="none" xmlns="http://www.w3.org/2000/svg">
<rect width="200" height="200" fill="white"/>
<path fill-rule="evenodd" clip-rule="evenodd" d="M135.563 99.904C141.476 92.3498 145 82.8364 145 72.5C145 47.9233 125.077 28 100.5 28C75.9233 28 56 47.9233 56 72.5C56 82.8364 59.5242 92.3498 65.4365 99.904C59.5242 107.373 56 116.78 56 127C56 151.301 75.9233 171 100.5 171C125.077 171 145 151.301 145 127C145 116.78 141.476 107.373 135.563 99.904Z" fill="#2B00D6"/>
<ellipse cx="86.5" cy="50" rx="2.5" ry="3" fill="white"/>
<ellipse cx="112.5" cy="50" rx="2.5" ry="3" fill="white"/>
<path fill-rule="evenodd" clip-rule="evenodd" d="M92.8901 56.991C93.4474 56.378 94.396 56.3328 95.009 56.8901C97.5555 59.2051 101.445 59.2051 103.991 56.8901C104.604 56.3328 105.553 56.378 106.11 56.991C106.667 57.604 106.622 58.5527 106.009 59.1099C102.318 62.4652 96.6818 62.4652 92.991 59.1099C92.378 58.5527 92.3328 57.604 92.8901 56.991Z" fill="white"/>
</svg>
