<svg width="200" height="200" viewBox="0 0 200 200" fill="none" xmlns="http://www.w3.org/2000/svg">
<path fill-rule="evenodd" clip-rule="evenodd" d="M165.797 114.4C165.717 106.331 164.029 98.3496 160.822 90.8909C157.535 83.2474 152.718 76.3024 146.645 70.4523C140.572 64.6022 133.362 59.9616 125.427 56.7956C117.493 53.6295 108.988 52 100.4 52C91.8115 52 83.3072 53.6295 75.3725 56.7956C67.4378 59.9616 60.2282 64.6022 54.1552 70.4523C48.0823 76.3024 43.2649 83.2474 39.9783 90.8909C36.7711 98.3496 35.0827 106.331 35.003 114.4H35V115V129.4V130H35.0097C35.1617 134.715 37.1013 139.206 40.4478 142.552C43.936 146.04 48.667 148 53.6 148C58.533 148 63.264 146.04 66.7522 142.552C70.0987 139.206 72.0383 134.715 72.1903 130H72.2V129.4V115H81.8047V129.4V130H81.8144C81.9664 134.715 83.906 139.205 87.2525 142.552C90.7407 146.04 95.4717 148 100.405 148C105.338 148 110.069 146.04 113.557 142.552C116.903 139.205 118.843 134.715 118.995 130H119.005V129.4V115H128.602V129.4V130H128.611C128.763 134.715 130.703 139.205 134.049 142.552C137.538 146.04 142.269 148 147.202 148C152.135 148 156.866 146.04 160.354 142.552C163.7 139.205 165.64 134.715 165.792 130H165.802V129.4V114.4H165.797Z" fill="#FE9CCD"/>
<ellipse cx="91.4023" cy="88" rx="2.5" ry="3" fill="black"/>
<ellipse cx="109.402" cy="88" rx="2.5" ry="3" fill="black"/>
<path fill-rule="evenodd" clip-rule="evenodd" d="M96.0309 94.1038C96.5259 93.6225 97.3172 93.6337 97.7985 94.1286C97.7985 94.1286 97.7985 94.1286 97.7985 94.1286L97.8055 94.1358L97.8285 94.1594L97.9188 94.2512C97.9974 94.3309 98.1108 94.4453 98.249 94.5828C98.526 94.8586 98.8989 95.2238 99.2873 95.587C99.6799 95.9541 100.07 96.3016 100.385 96.551C100.391 96.5556 100.397 96.5602 100.402 96.5647C100.408 96.5602 100.414 96.5556 100.42 96.551C100.735 96.3016 101.125 95.9541 101.517 95.587C101.906 95.2238 102.279 94.8586 102.556 94.5828C102.694 94.4453 102.807 94.3309 102.886 94.2512L102.976 94.1594L102.999 94.1358L103.006 94.1288C103.487 93.6339 104.279 93.6225 104.774 94.1038C105.269 94.585 105.28 95.3764 104.799 95.8713L103.902 95C104.799 95.8713 104.799 95.8713 104.799 95.8713L104.789 95.8814L104.763 95.908C104.74 95.931 104.707 95.9644 104.666 96.0066C104.583 96.091 104.464 96.2109 104.319 96.3547C104.031 96.6414 103.639 97.0262 103.225 97.413C102.815 97.7959 102.367 98.1984 101.971 98.5115C101.775 98.6662 101.567 98.8196 101.367 98.9406C101.268 99.0009 101.147 99.0675 101.013 99.1223C100.899 99.1694 100.677 99.25 100.402 99.25C100.128 99.25 99.9058 99.1694 99.7912 99.1223C99.658 99.0675 99.537 99.0009 99.4373 98.9406C99.2375 98.8196 99.0292 98.6662 98.8337 98.5115C98.4379 98.1984 97.9892 97.7959 97.5798 97.413C97.1661 97.0262 96.7733 96.6414 96.4853 96.3547C96.3409 96.2109 96.2219 96.091 96.1387 96.0066C96.0971 95.9644 96.0644 95.931 96.0418 95.908L96.0158 95.8814L96.0062 95.8715C96.0061 95.8714 96.006 95.8713 96.9023 95L96.0062 95.8715C95.5249 95.3765 95.536 94.585 96.0309 94.1038Z" fill="black"/>
</svg>
