<svg width="200" height="200" viewBox="0 0 200 200" fill="none" xmlns="http://www.w3.org/2000/svg">
<path fill-rule="evenodd" clip-rule="evenodd" d="M161.486 68.2444C171.556 82.4477 176.979 99.4494 177.001 116.89V117V140.689V141.156H176.997C176.748 155.116 165.354 166.355 151.335 166.355C137.316 166.355 125.922 155.116 125.672 141.156H125.668V140.689L125.668 117C125.668 110.33 123.258 103.827 119.407 98.3957C115.556 92.9645 110.115 88.8762 103.844 86.7005C97.5722 84.5248 90.7816 84.37 84.4183 86.2577C78.908 87.8923 73.9558 90.9881 70.0701 95.1979C65.3041 101.567 57.7001 105.689 49.1333 105.689C34.7003 105.689 23 93.9885 23 79.5555C23 72.1726 26.0615 65.5047 30.9842 60.7522C41.3397 49.1124 54.7754 40.8897 69.7929 36.4347C86.469 31.4876 104.265 31.8933 120.701 37.5952C137.137 43.297 151.394 54.0111 161.486 68.2444Z" fill="#B8DE2A"/>
<ellipse cx="34.5" cy="85" rx="2.5" ry="3" fill="black"/>
<path d="M37 94V94C38.3584 97.7356 43.6416 97.7356 45 94V94" stroke="black" stroke-width="2.5" stroke-linecap="round"/>
<path d="M46.7188 86.2012V86.2012C48.3013 88.2045 51.4005 87.9997 52.7057 85.8055V85.8055" stroke="black" stroke-width="2.5" stroke-linecap="round"/>
</svg>
