<svg width="200" height="200" viewBox="0 0 200 200" fill="none" xmlns="http://www.w3.org/2000/svg">
<path d="M71.4038 59C44.2857 59 28.1534 75.6125 17.4133 82.6072C2.60952 99.22 10.4468 110.586 17.4133 120.203C24.3799 129.821 33.836 126.96 44.2857 122.588C54.7355 118.216 64.5241 103.995 78.4571 103.995C92.3902 103.995 90.1403 108.598 106.686 122.588C123.231 136.577 154.427 144.688 169.806 141.188C186.171 137.462 191 132.083 191 113.721C191 96.5 172.158 89.877 153 92.5C140.371 94.2291 121.914 72.3869 121.914 72.3869C121.914 72.3869 109.5 59 71.4038 59Z" fill="url(#paint0_linear_235_13825)"/>
<ellipse cx="21.5" cy="100" rx="2.5" ry="3" fill="white"/>
<ellipse cx="40.5" cy="100" rx="2.5" ry="3" fill="white"/>
<path fill-rule="evenodd" clip-rule="evenodd" d="M26.3857 107.825C27.0345 107.589 27.7517 107.924 27.9876 108.573C28.947 111.211 32.6786 111.211 33.6381 108.573C33.874 107.924 34.5912 107.589 35.24 107.825C35.8888 108.061 36.2235 108.778 35.9876 109.427C34.2302 114.26 27.3954 114.26 25.6381 109.427C25.4022 108.778 25.7369 108.061 26.3857 107.825Z" fill="white"/>
<defs>
<linearGradient id="paint0_linear_235_13825" x1="9" y1="59" x2="141.811" y2="191.358" gradientUnits="userSpaceOnUse">
<stop stop-color="#2B00D6"/>
</linearGradient>
</defs>
</svg>
