<svg width="200" height="210" viewBox="0 0 200 210" fill="none" xmlns="http://www.w3.org/2000/svg">
<rect width="200" height="210" fill="white"/>
<path fill-rule="evenodd" clip-rule="evenodd" d="M79 141.835C73.3709 150.25 65.8114 155.4 57.5 155.4C40.103 155.4 26 132.835 26 105C26 77.1649 40.103 54.6001 57.5 54.6001C65.8114 54.6001 73.3709 59.7504 79 68.1651C84.6291 59.7504 92.1886 54.6001 100.5 54.6001C108.811 54.6001 116.371 59.7504 122 68.1651C127.629 59.7504 135.189 54.6001 143.5 54.6001C160.897 54.6001 175 77.1649 175 105C175 132.835 160.897 155.4 143.5 155.4C135.189 155.4 127.629 150.25 122 141.835C116.371 150.25 108.811 155.4 100.5 155.4C92.1886 155.4 84.6291 150.25 79 141.835Z" fill="#FF521D"/>
<ellipse cx="91.5" cy="92.4" rx="2.5" ry="3.15" fill="white"/>
<ellipse cx="110.5" cy="92.4" rx="2.5" ry="3.15" fill="white"/>
<path fill-rule="evenodd" clip-rule="evenodd" d="M94.1751 104.552C93.9392 103.871 93.222 103.519 92.5732 103.767C91.9244 104.015 91.5897 104.768 91.8256 105.449C93.305 109.721 98.3827 110.396 101 107.476C103.618 110.396 108.696 109.721 110.175 105.449C110.411 104.768 110.076 104.015 109.428 103.767C108.779 103.519 108.062 103.871 107.826 104.552C106.867 107.32 103.141 107.322 102.178 104.56C102.173 104.545 102.167 104.53 102.162 104.515C102.097 104.344 102.002 104.195 101.884 104.072C101.768 103.949 101.625 103.849 101.463 103.781C101.188 103.666 100.873 103.652 100.573 103.767C100.561 103.771 100.55 103.776 100.538 103.781C100.813 103.666 101.128 103.652 101.428 103.767M99.839 104.515C99.8334 104.53 99.828 104.545 99.8229 104.56C99.8238 104.557 99.8247 104.554 99.8256 104.552C99.8299 104.539 99.8343 104.527 99.839 104.515Z" fill="white"/>
</svg>
