<svg width="200" height="211" viewBox="0 0 200 211" fill="none" xmlns="http://www.w3.org/2000/svg">
<rect width="200" height="211" fill="white"/>
<path fill-rule="evenodd" clip-rule="evenodd" d="M165.444 114.4C164.789 108.048 163.236 101.813 160.822 95.8898C157.535 87.8259 152.718 80.4989 146.645 74.327C140.572 68.1552 133.362 63.2594 125.427 59.9192C117.493 56.579 108.988 54.8599 100.4 54.8599C91.8115 54.8599 83.3072 56.579 75.3725 59.9192C67.4378 63.2594 60.2282 68.1552 54.1552 74.327C48.0823 80.4989 43.2649 87.8259 39.9783 95.8898C37.5643 101.813 36.0107 108.048 35.3559 114.4H35V121.325V130H72.2V121.325H81.8047V130H119.005V121.325H128.602V130H165.802V114.4H165.444ZM72.2 136.517C72.2 141.721 70.2404 146.712 66.7522 150.392C63.264 154.072 58.533 156.14 53.6 156.14C48.667 156.14 43.936 154.072 40.4478 150.392C36.9596 146.712 35 141.721 35 136.517L53.6 136.517H72.2ZM119.005 136.517C119.005 141.721 117.045 146.712 113.557 150.392C110.069 154.072 105.338 156.14 100.405 156.14C95.4717 156.14 90.7407 154.072 87.2525 150.392C83.7643 146.712 81.8047 141.721 81.8047 136.517L100.405 136.517H119.005ZM165.802 136.517C165.802 141.721 163.842 146.712 160.354 150.392C156.866 154.072 152.135 156.14 147.202 156.14C142.269 156.14 137.538 154.072 134.049 150.392C130.561 146.712 128.602 141.721 128.602 136.517L147.202 136.517H165.802Z" fill="#FE9CCD"/>
<ellipse cx="91.4023" cy="92.8398" rx="2.5" ry="3.165" fill="black"/>
<ellipse cx="109.402" cy="92.8398" rx="2.5" ry="3.165" fill="black"/>
<path fill-rule="evenodd" clip-rule="evenodd" d="M96.0309 99.2795C96.5259 98.7718 97.3172 98.7835 97.7985 99.3057C97.7985 99.3057 97.7985 99.3057 97.7985 99.3057L97.8055 99.3133L97.8285 99.3381L97.9188 99.435C97.9974 99.5191 98.1108 99.6398 98.249 99.7849C98.526 100.076 98.8989 100.461 99.2873 100.844C99.6799 101.232 100.07 101.598 100.385 101.861C100.391 101.866 100.397 101.871 100.402 101.876C100.408 101.871 100.414 101.866 100.42 101.861C100.735 101.598 101.125 101.232 101.517 100.844C101.906 100.461 102.279 100.076 102.556 99.7849C102.694 99.6398 102.807 99.5191 102.886 99.435L102.976 99.3381L102.999 99.3133L103.006 99.3059C103.487 98.7838 104.279 98.7718 104.774 99.2795C105.269 99.7872 105.28 100.622 104.799 101.144L103.902 100.225C104.799 101.144 104.799 101.144 104.799 101.144L104.789 101.155L104.763 101.183C104.74 101.207 104.707 101.242 104.666 101.287C104.583 101.376 104.464 101.503 104.319 101.654C104.031 101.957 103.639 102.363 103.225 102.771C102.815 103.175 102.367 103.599 101.971 103.93C101.775 104.093 101.567 104.255 101.367 104.382C101.268 104.446 101.147 104.516 101.013 104.574C100.899 104.624 100.677 104.709 100.402 104.709C100.128 104.709 99.9058 104.624 99.7912 104.574C99.658 104.516 99.537 104.446 99.4373 104.382C99.2375 104.255 99.0292 104.093 98.8337 103.93C98.4379 103.599 97.9892 103.175 97.5798 102.771C97.1661 102.363 96.7733 101.957 96.4853 101.654C96.3409 101.503 96.2219 101.376 96.1387 101.287C96.0971 101.242 96.0644 101.207 96.0418 101.183L96.0158 101.155L96.0062 101.144C96.0061 101.144 96.006 101.144 96.9023 100.225L96.0062 101.144C95.5249 100.622 95.536 99.7872 96.0309 99.2795Z" fill="black"/>
</svg>
