<svg width="200" height="200" viewBox="0 0 200 200" fill="none" xmlns="http://www.w3.org/2000/svg">
<path d="M99.4087 113.693C134.184 108.533 136.525 76.9952 141.148 57.082C143.404 47.3644 155.115 37.5586 169.323 40.5456C187.082 44.2794 186.746 56.8323 169.323 113.693C154.648 161.582 121.824 159.346 96.7025 159.346C71.9153 159.346 41.1617 153.1 24.5183 138.98C3.71411 121.33 31.1986 106.847 45.3225 105.037C74.0377 101.357 55.9398 120.142 99.4087 113.693Z" fill="#FE9CCD"/>
<ellipse cx="28.3242" cy="121.345" rx="2.5" ry="3" fill="black"/>
<ellipse cx="41.3242" cy="121.345" rx="2.5" ry="3" fill="black"/>
<path fill-rule="evenodd" clip-rule="evenodd" d="M29.6474 129.17C30.2962 128.934 31.0134 129.269 31.2493 129.918C32.2088 132.556 35.9404 132.556 36.8998 129.918C37.1357 129.269 37.8529 128.934 38.5017 129.17C39.1505 129.406 39.4852 130.123 39.2493 130.772C37.492 135.605 30.6572 135.605 28.8998 130.772C28.6639 130.123 28.9986 129.406 29.6474 129.17Z" fill="black"/>
</svg>
