<svg width="390" height="500" viewBox="0 0 390 500" fill="none" xmlns="http://www.w3.org/2000/svg">
<g clip-path="url(#clip0_527_13894)">
<path d="M264.241 87.3263C211.555 105.54 191.37 148.651 175.201 169.454C157.598 211.673 180.458 228.491 200.453 242.497C220.447 256.504 236.897 244.593 254.263 229.081C271.629 213.569 281.095 179.365 308.165 170.007C335.235 160.649 333.955 171.104 375.496 187.171C417.038 203.237 483.093 198.043 510.621 180.913C539.915 162.683 545.683 148.988 533.351 113.315C521.784 79.8566 480.728 79.6443 445.269 97.6078C421.895 109.449 371.366 79.4098 371.366 79.4098C371.366 79.4098 338.256 61.7391 264.241 87.3263Z" fill="url(#paint0_linear_527_13894)"/>
<ellipse cx="194.813" cy="200.503" rx="5.13915" ry="6.16698" transform="rotate(-19.0704 194.813 200.503)" fill="white"/>
<ellipse cx="231.724" cy="187.743" rx="5.13915" ry="6.16698" transform="rotate(-19.0704 231.724 187.743)" fill="white"/>
<path fill-rule="evenodd" clip-rule="evenodd" d="M209.568 212.422C210.67 211.528 212.288 211.697 213.182 212.799C216.819 217.28 224.069 214.774 224.16 209.003C224.183 207.585 225.352 206.453 226.771 206.475C228.19 206.498 229.322 207.666 229.299 209.085C229.131 219.655 215.852 224.245 209.192 216.037C208.297 214.934 208.466 213.316 209.568 212.422Z" fill="white"/>
<path d="M261.835 472.501C267.965 473.716 273.739 473.879 279.848 472.153C287.02 470.126 295.548 466.003 297.798 458.323C299.125 453.797 297.851 448.724 295.01 445.017C292.908 442.276 288.606 443.048 286.238 445.177C282.882 448.193 282.716 453.529 284.318 457.411C287.687 465.579 297.185 470.991 305.611 472.47C318.607 474.749 332.39 471.752 344.83 467.913C352.133 465.659 358.998 462.606 365.439 458.522" stroke="#2B00D6" stroke-width="5" stroke-linecap="round"/>
<path d="M-7 292.68C-3.5 297 2.93566 300.261 9.28137 300.457C16.7301 300.686 26.1039 299.324 30.5645 292.68C33.1932 288.764 33.5073 283.543 31.9154 279.152C30.7379 275.905 26.4032 275.345 23.5041 276.661C19.3947 278.525 17.6288 283.563 17.9858 287.747C18.737 296.551 30.5645 311.5 46 310" stroke="#FF521D" stroke-width="5" stroke-linecap="round"/>
<circle cx="196.5" cy="397.031" r="10.5" fill="#B8DE2A"/>
<path d="M67.1198 394.4C107.377 393.445 114.491 357.927 122.557 335.945C126.494 325.217 141.189 315.725 156.917 321.126C176.577 327.877 174.423 342.099 146.59 404.271C123.148 456.634 86.1536 449.458 57.5981 445.911C29.4229 442.412 -4.65234 430.97 -21.577 412.57C-42.7328 389.57 -9.44689 376.988 6.86303 376.925C40.0226 376.797 16.7989 395.593 67.1198 394.4Z" fill="#FF521D"/>
<ellipse cx="145.987" cy="333.376" rx="2.86354" ry="3.43625" transform="rotate(-16.0512 145.987 333.376)" fill="black"/>
<ellipse cx="158.8" cy="327.902" rx="2.86354" ry="3.43625" transform="rotate(-16.0512 158.8 327.902)" fill="black"/>
<path fill-rule="evenodd" clip-rule="evenodd" d="M152.262 340.287C152.902 339.821 153.797 339.963 154.262 340.602C156.154 343.203 160.262 342.021 160.482 338.813C160.536 338.024 161.22 337.428 162.009 337.482C162.798 337.537 163.393 338.22 163.339 339.009C162.935 344.885 155.411 347.05 151.947 342.287C151.481 341.647 151.623 340.752 152.262 340.287Z" fill="black"/>
<path d="M74.625 259.949L101.495 286.82" stroke="#2B00D6" stroke-width="5" stroke-linecap="round"/>
<path d="M101.496 259.949L74.6257 286.82" stroke="#2B00D6" stroke-width="5" stroke-linecap="round"/>
<path d="M88 292V254" stroke="#2B00D6" stroke-width="5" stroke-linecap="round"/>
<path d="M107 273H69" stroke="#2B00D6" stroke-width="5" stroke-linecap="round"/>
<path d="M83 136.68C86.5 141 92.9357 144.261 99.2814 144.457C106.73 144.686 116.104 143.324 120.564 136.68C123.193 132.764 123.507 127.543 121.915 123.152C120.738 119.905 116.403 119.345 113.504 120.661C109.395 122.525 107.629 127.563 107.986 131.747C108.737 140.551 120.564 155.5 136 154" stroke="#FF521D" stroke-width="5" stroke-linecap="round"/>
<path d="M310 276.68C313.5 281 319.936 284.261 326.281 284.457C333.73 284.686 343.104 283.324 347.564 276.68C350.193 272.764 350.507 267.543 348.915 263.152C347.738 259.905 343.403 259.345 340.504 260.661C336.395 262.525 334.629 267.563 334.986 271.747C335.737 280.551 347.564 295.5 363 294" stroke="#FE9CCD" stroke-width="5" stroke-linecap="round"/>
<circle cx="45.5" cy="153.5" r="10.5" fill="#B8DE2A"/>
<path d="M-7 9L36 52" stroke="#B8DE2A" stroke-width="8" stroke-linecap="round"/>
<path d="M-37 10L46 93" stroke="#FE9CCD" stroke-width="8" stroke-linecap="round"/>
<circle cx="94.5" cy="64.5" r="7.5" fill="#B8DE2A"/>
</g>
<defs>
<linearGradient id="paint0_linear_527_13894" x1="143" y1="129.24" x2="489.928" y2="297.188" gradientUnits="userSpaceOnUse">
<stop stop-color="#2B00D6"/>
</linearGradient>
<clipPath id="clip0_527_13894">
<rect width="390" height="500" fill="white"/>
</clipPath>
</defs>
</svg>
