<svg width="272" height="277" viewBox="0 0 272 277" fill="none" xmlns="http://www.w3.org/2000/svg">
<path d="M93.2297 82C52.716 82 28.6147 106.819 12.5693 117.269C-9.54722 142.088 2.16154 159.068 12.5693 173.436C22.9771 187.805 37.1043 183.53 52.716 176.999C68.3277 170.468 82.9517 149.221 103.767 149.221C124.583 149.221 121.222 156.099 145.94 176.999C170.659 197.899 217.264 210.016 240.24 204.786C264.69 199.221 271.904 191.184 271.904 163.752C271.904 138.024 243.754 128.129 215.133 132.048C196.266 134.631 168.691 102 168.691 102C168.691 102 150.145 82 93.2297 82Z" fill="url(#paint0_linear_477_14551)"/>
<ellipse cx="18.6685" cy="143.253" rx="3.73494" ry="4.48193" fill="white"/>
<ellipse cx="47.0513" cy="143.253" rx="3.73494" ry="4.48193" fill="white"/>
<path fill-rule="evenodd" clip-rule="evenodd" d="M25.972 154.944C26.9413 154.591 28.0127 155.091 28.3652 156.06C29.7986 160.002 35.3735 160.002 36.8069 156.06C37.1594 155.091 38.2309 154.591 39.2002 154.944C40.1694 155.296 40.6695 156.367 40.317 157.337C37.6916 164.557 27.4806 164.557 24.8551 157.337C24.5027 156.367 25.0027 155.296 25.972 154.944Z" fill="white"/>
<path d="M122.215 60.1057C150.579 55.8976 152.488 30.1743 156.259 13.9326C158.099 6.00658 167.65 -1.99124 179.239 0.445027C193.724 3.49036 193.45 13.7289 179.239 60.1059C167.27 99.1657 140.498 97.3418 120.008 97.3418C99.7904 97.3418 74.707 92.2478 61.1322 80.7309C44.1637 66.3347 66.5808 54.5223 78.1007 53.046C101.522 50.0447 86.7604 65.3658 122.215 60.1057Z" fill="#FF521D"/>
<ellipse cx="64.2383" cy="66.3473" rx="2.03907" ry="2.44688" fill="black"/>
<ellipse cx="74.8399" cy="66.3473" rx="2.03907" ry="2.44688" fill="black"/>
<path fill-rule="evenodd" clip-rule="evenodd" d="M65.3159 72.7301C65.8451 72.5377 66.4301 72.8107 66.6225 73.3399C67.4051 75.4919 70.4487 75.4919 71.2312 73.3399C71.4236 72.8107 72.0086 72.5377 72.5378 72.7301C73.067 72.9225 73.3399 73.5075 73.1475 74.0367C71.7142 77.9784 66.1395 77.9784 64.7062 74.0367C64.5138 73.5075 64.7868 72.9225 65.3159 72.7301Z" fill="black"/>
<path d="M208.181 240.633C208.181 242.558 207.459 244.065 206.015 245.155C204.571 246.244 202.443 246.789 199.631 246.789C198.567 246.789 197.579 246.713 196.667 246.561C195.755 246.409 194.969 246.181 194.311 245.877C193.677 245.548 193.171 245.142 192.791 244.661C192.436 244.179 192.259 243.609 192.259 242.951C192.259 242.343 192.385 241.836 192.639 241.431C192.892 241 193.196 240.645 193.551 240.367C194.285 240.772 195.121 241.139 196.059 241.469C197.021 241.773 198.124 241.925 199.365 241.925C200.15 241.925 200.746 241.811 201.151 241.583C201.582 241.355 201.797 241.051 201.797 240.671C201.797 240.316 201.645 240.037 201.341 239.835C201.037 239.632 200.53 239.467 199.821 239.341L198.681 239.113C196.477 238.682 194.83 238.01 193.741 237.098C192.677 236.161 192.145 234.831 192.145 233.108C192.145 232.171 192.347 231.322 192.753 230.562C193.158 229.802 193.728 229.169 194.463 228.662C195.197 228.155 196.071 227.763 197.085 227.484C198.124 227.205 199.264 227.066 200.505 227.066C201.442 227.066 202.316 227.142 203.127 227.294C203.963 227.421 204.685 227.623 205.293 227.902C205.901 228.181 206.383 228.548 206.737 229.004C207.092 229.435 207.269 229.954 207.269 230.562C207.269 231.145 207.155 231.651 206.927 232.082C206.725 232.488 206.459 232.83 206.129 233.108C205.927 232.982 205.623 232.855 205.217 232.728C204.812 232.576 204.369 232.45 203.887 232.348C203.406 232.222 202.912 232.12 202.405 232.044C201.924 231.968 201.48 231.93 201.075 231.93C200.239 231.93 199.593 232.032 199.137 232.234C198.681 232.412 198.453 232.703 198.453 233.108C198.453 233.387 198.58 233.615 198.833 233.792C199.086 233.97 199.568 234.134 200.277 234.286L201.455 234.552C203.887 235.11 205.61 235.882 206.623 236.87C207.662 237.833 208.181 239.087 208.181 240.633Z" fill="black" fill-opacity="0.87"/>
<path d="M184.199 246.105C183.945 246.181 183.54 246.257 182.983 246.333C182.451 246.409 181.893 246.447 181.31 246.447C180.753 246.447 180.246 246.409 179.79 246.333C179.36 246.257 178.992 246.105 178.688 245.877C178.384 245.649 178.144 245.345 177.966 244.965C177.814 244.56 177.738 244.04 177.738 243.407V233.758C177.738 233.175 177.734 232.827 177.958 231.708C178.085 231.076 178.578 229.989 178.983 229.659C179.495 229.147 179.892 228.764 180.474 228.51C181.082 228.231 181.728 227.991 182.413 227.788C183.097 227.585 183.806 227.433 184.541 227.332C185.275 227.205 186.01 227.142 186.745 227.142C187.961 227.142 188.924 227.383 189.633 227.864C190.342 228.32 190.697 229.08 190.697 230.144C190.697 230.499 190.646 230.854 190.545 231.208C190.444 231.538 190.317 231.842 190.165 232.12C189.633 232.12 189.088 232.146 188.531 232.196C187.973 232.247 187.429 232.323 186.897 232.424C186.365 232.526 185.858 232.64 185.377 232.766C184.921 232.868 184.528 232.994 184.199 233.146V246.105Z" fill="black" fill-opacity="0.87"/>
<path d="M167.408 246.751C165.914 246.751 164.52 246.549 163.228 246.143C161.961 245.713 160.847 245.079 159.884 244.243C158.947 243.407 158.199 242.356 157.642 241.089C157.11 239.822 156.844 238.34 156.844 236.643C156.844 234.971 157.11 233.539 157.642 232.349C158.199 231.132 158.921 230.144 159.808 229.384C160.695 228.599 161.708 228.029 162.848 227.674C163.988 227.294 165.154 227.104 166.344 227.104C167.687 227.104 168.903 227.307 169.992 227.712C171.107 228.118 172.057 228.675 172.843 229.384C173.653 230.094 174.274 230.942 174.705 231.931C175.161 232.919 175.389 233.995 175.389 235.161C175.389 236.022 175.148 236.681 174.667 237.137C174.185 237.593 173.514 237.884 172.653 238.011L163.266 239.417C163.545 240.253 164.115 240.886 164.976 241.317C165.838 241.722 166.826 241.925 167.94 241.925C168.979 241.925 169.954 241.798 170.866 241.545C171.804 241.266 172.564 240.95 173.147 240.595C173.552 240.848 173.894 241.203 174.173 241.659C174.451 242.115 174.591 242.596 174.591 243.103C174.591 244.243 174.059 245.092 172.995 245.649C172.184 246.08 171.272 246.371 170.258 246.523C169.245 246.675 168.295 246.751 167.408 246.751ZM166.344 231.816C165.736 231.816 165.204 231.918 164.748 232.121C164.317 232.323 163.963 232.589 163.684 232.919C163.405 233.223 163.19 233.577 163.038 233.983C162.911 234.363 162.835 234.755 162.81 235.161L169.308 234.097C169.232 233.59 168.954 233.083 168.472 232.577C167.991 232.07 167.282 231.816 166.344 231.816Z" fill="black" fill-opacity="0.87"/>
<path d="M147.955 234.439C147.955 233.653 147.727 233.083 147.271 232.729C146.84 232.349 146.245 232.159 145.484 232.159C144.978 232.159 144.471 232.222 143.964 232.349C143.483 232.475 143.065 232.665 142.71 232.919V246.105C142.457 246.181 142.052 246.257 141.494 246.333C140.962 246.409 140.405 246.447 139.822 246.447C139.265 246.447 138.758 246.409 138.302 246.333C137.871 246.257 137.504 246.105 137.2 245.877C136.896 245.649 136.655 245.345 136.478 244.965C136.326 244.56 136.25 244.04 136.25 243.407V232.007C136.25 231.322 136.389 230.765 136.668 230.334C136.972 229.904 137.377 229.511 137.884 229.156C138.745 228.548 139.822 228.054 141.114 227.674C142.432 227.294 143.888 227.104 145.484 227.104C148.347 227.104 150.551 227.738 152.097 229.004C153.642 230.246 154.415 231.981 154.415 234.211V246.105C154.162 246.181 153.756 246.257 153.199 246.333C152.667 246.409 152.109 246.447 151.527 246.447C150.969 246.447 150.463 246.409 150.007 246.333C149.576 246.257 149.209 246.105 148.905 245.877C148.601 245.649 148.36 245.345 148.183 244.965C148.031 244.56 147.955 244.04 147.955 243.407V234.439Z" fill="black" fill-opacity="0.87"/>
<path d="M126.56 234.439C126.56 233.653 126.332 233.083 125.876 232.729C125.445 232.349 124.85 232.159 124.09 232.159C123.583 232.159 123.077 232.222 122.57 232.349C122.089 232.475 121.67 232.665 121.316 232.919V246.105C121.062 246.181 120.657 246.257 120.1 246.333C119.568 246.409 119.01 246.447 118.428 246.447C117.87 246.447 117.364 246.409 116.908 246.333C116.477 246.257 116.11 246.105 115.806 245.877C115.502 245.649 115.261 245.345 115.083 244.965C114.931 244.56 114.855 244.04 114.855 243.407V232.007C114.855 231.322 114.995 230.765 115.273 230.334C115.578 229.904 115.983 229.511 116.49 229.156C117.351 228.548 118.428 228.054 119.72 227.674C121.037 227.294 122.494 227.104 124.09 227.104C126.953 227.104 129.157 227.738 130.702 229.004C132.248 230.246 133.02 231.981 133.02 234.211V246.105C132.767 246.181 132.362 246.257 131.804 246.333C131.272 246.409 130.715 246.447 130.132 246.447C129.575 246.447 129.068 246.409 128.612 246.333C128.181 246.257 127.814 246.105 127.51 245.877C127.206 245.649 126.965 245.345 126.788 244.965C126.636 244.56 126.56 244.04 126.56 243.407V234.439Z" fill="black" fill-opacity="0.87"/>
<path d="M112.46 236.909C112.46 238.48 112.219 239.886 111.738 241.127C111.257 242.343 110.572 243.369 109.686 244.205C108.824 245.041 107.786 245.675 106.57 246.105C105.354 246.536 103.998 246.751 102.503 246.751C101.009 246.751 99.6532 246.523 98.4372 246.067C97.2211 245.611 96.1697 244.965 95.283 244.129C94.4216 243.268 93.7503 242.229 93.2689 241.013C92.7876 239.797 92.5469 238.429 92.5469 236.909C92.5469 235.414 92.7876 234.059 93.2689 232.843C93.7503 231.626 94.4216 230.6 95.283 229.764C96.1697 228.903 97.2211 228.244 98.4372 227.788C99.6532 227.332 101.009 227.104 102.503 227.104C103.998 227.104 105.354 227.345 106.57 227.826C107.786 228.282 108.824 228.941 109.686 229.802C110.572 230.638 111.257 231.664 111.738 232.881C112.219 234.097 112.46 235.439 112.46 236.909ZM99.1592 236.909C99.1592 238.454 99.4506 239.645 100.033 240.481C100.641 241.292 101.477 241.697 102.541 241.697C103.605 241.697 104.416 241.279 104.974 240.443C105.556 239.607 105.848 238.429 105.848 236.909C105.848 235.389 105.556 234.223 104.974 233.413C104.391 232.577 103.567 232.159 102.503 232.159C101.439 232.159 100.616 232.577 100.033 233.413C99.4506 234.223 99.1592 235.389 99.1592 236.909Z" fill="black" fill-opacity="0.87"/>
<path d="M90.9521 236.909C90.9521 238.48 90.7114 239.886 90.2301 241.127C89.7487 242.343 89.0647 243.369 88.178 244.205C87.3166 245.041 86.2779 245.675 85.0618 246.105C83.8457 246.536 82.4903 246.751 80.9956 246.751C79.5008 246.751 78.1454 246.523 76.9294 246.067C75.7133 245.611 74.6619 244.965 73.7752 244.129C72.9138 243.268 72.2425 242.229 71.7611 241.013C71.2797 239.797 71.0391 238.429 71.0391 236.909C71.0391 235.414 71.2797 234.059 71.7611 232.843C72.2425 231.626 72.9138 230.6 73.7752 229.764C74.6619 228.903 75.7133 228.244 76.9294 227.788C78.1454 227.332 79.5008 227.104 80.9956 227.104C82.4903 227.104 83.8457 227.345 85.0618 227.826C86.2779 228.282 87.3166 228.941 88.178 229.802C89.0647 230.638 89.7487 231.664 90.2301 232.881C90.7114 234.097 90.9521 235.439 90.9521 236.909ZM77.6514 236.909C77.6514 238.454 77.9428 239.645 78.5255 240.481C79.1335 241.292 79.9695 241.697 81.0336 241.697C82.0976 241.697 82.9084 241.279 83.4657 240.443C84.0484 239.607 84.3398 238.429 84.3398 236.909C84.3398 235.389 84.0484 234.223 83.4657 233.413C82.883 232.577 82.0596 232.159 80.9956 232.159C79.9315 232.159 79.1082 232.577 78.5255 233.413C77.9428 234.223 77.6514 235.389 77.6514 236.909Z" fill="black" fill-opacity="0.87"/>
<path d="M53.1752 228.434C52.9978 228.156 52.8331 227.776 52.6811 227.294C52.5291 226.813 52.4531 226.306 52.4531 225.774C52.4531 224.786 52.6685 224.077 53.0992 223.646C53.5552 223.215 54.1379 223 54.8472 223H69.4843C69.6616 223.279 69.9966 223.397 70.5088 224.025C71.5334 225.049 70.8433 224.359 71.8678 225.482C72.3801 225.896 73.3954 227.18 72.9394 227.61C72.5087 228.041 72.1165 228.434 71.4071 228.434H65.5258V245.991C65.2471 246.067 64.8038 246.143 64.1957 246.219C63.613 246.295 63.0303 246.333 62.4476 246.333C61.865 246.333 61.3456 246.283 60.8896 246.181C60.4589 246.105 60.0915 245.953 59.7875 245.725C59.4835 245.497 59.2555 245.18 59.1035 244.775C58.9515 244.37 58.8755 243.838 58.8755 243.179V228.434H53.1752Z" fill="black" fill-opacity="0.87"/>
<circle cx="215.867" cy="242.978" r="3.58589" fill="#2B00D6"/>
<path d="M180.458 263.202L179.828 264.392C177.77 263.972 175.992 262.656 175.166 260.92C174.34 262.656 172.562 263.972 170.504 264.392L169.888 263.202C172.38 262.74 174.41 260.794 174.41 258.792V257.84H175.936V258.792C175.936 260.808 177.966 262.754 180.458 263.202ZM169.496 266.856H180.948V268.046H169.496V266.856Z" fill="black" fill-opacity="0.87"/>
<path d="M165.84 257.014H167.296V269.698H165.84V257.014ZM157.566 258.064H158.994V261.284H162.2V258.064H163.642V266.688H157.566V258.064ZM158.994 262.432V265.526H162.2V262.432H158.994Z" fill="black" fill-opacity="0.87"/>
<path d="M148.877 258.05V260.136C148.877 262.488 150.081 264.784 152.013 265.68L151.159 266.842C149.731 266.128 148.709 264.742 148.163 263.048C147.603 264.84 146.567 266.31 145.125 267.052L144.215 265.904C146.189 264.938 147.421 262.502 147.421 260.136V258.05H148.877ZM153.343 257H154.799V269.684H153.343V262.334H150.641V261.158H153.343V257Z" fill="black" fill-opacity="0.87"/>
<path d="M138.406 260.822H140.73V257.042H142.172V266.436H140.73V262.012H138.406V260.822ZM139.218 263.65L138.518 264.784C137.09 264.336 136.026 263.412 135.466 262.222C134.906 263.51 133.856 264.518 132.386 265.008L131.672 263.888C133.618 263.23 134.71 261.69 134.71 260.024V259.786H132.05V258.624H134.71V257.112H136.166V258.624H138.812V259.786H136.152V260.024C136.152 261.578 137.272 263.048 139.218 263.65ZM135.424 268.256H142.494V269.432H133.982V265.624H135.424V268.256Z" fill="black" fill-opacity="0.87"/>
<path d="M120.26 263.804L119.756 262.67C122.206 262.376 123.942 261.046 124.068 259.688H120.176V258.526H124.082V257.042H125.524V258.526H129.444V259.688H125.538C125.664 261.032 127.4 262.376 129.85 262.67L129.332 263.804C127.274 263.538 125.622 262.6 124.796 261.34C123.984 262.6 122.332 263.524 120.26 263.804ZM130.522 264.63V265.82H125.524V269.698H124.082V265.82H119.098V264.63H130.522Z" fill="black" fill-opacity="0.87"/>
<path d="M113.771 261.844V262.978H105.077V257.462H113.701V258.596H106.519V259.66H113.393V260.752H106.519V261.844H113.771ZM106.463 266.03V268.256H113.813V269.432H105.021V266.03H106.463ZM103.621 263.888H115.101V265.05H110.187V267.136H108.745V265.05H103.621V263.888Z" fill="black" fill-opacity="0.87"/>
<path d="M96.0351 263.258H98.0931V257.266H99.4511V264.798H98.0931V264.238H96.0351V263.258ZM94.2991 258.47C93.4171 258.47 92.8431 258.792 92.8431 259.338C92.8431 259.898 93.4171 260.22 94.2991 260.22C95.1951 260.22 95.7691 259.898 95.7691 259.338C95.7691 258.792 95.1951 258.47 94.2991 258.47ZM94.2991 261.228C92.6611 261.228 91.5411 260.5 91.5411 259.338C91.5411 258.204 92.6611 257.462 94.2991 257.462C95.9511 257.462 97.0571 258.204 97.0571 259.338C97.0571 260.5 95.9511 261.228 94.2991 261.228ZM93.6551 264.784V262.894C92.6891 262.936 91.8071 262.95 91.0931 262.95L90.9531 261.844C92.6611 261.844 95.4331 261.816 97.4911 261.48L97.5751 262.46C96.7911 262.628 95.9231 262.754 95.0411 262.81V264.784H93.6551ZM100.375 268.382V267.388H94.5231V268.382H100.375ZM100.375 266.296V265.274H101.803V269.516H93.0951V265.274H94.5231V266.296H100.375ZM100.431 257.028H101.803V264.84H100.431V257.028Z" fill="black" fill-opacity="0.87"/>
<defs>
<linearGradient id="paint0_linear_477_14551" x1="0" y1="82" x2="198.416" y2="279.739" gradientUnits="userSpaceOnUse">
<stop stop-color="#2B00D6"/>
</linearGradient>
</defs>
</svg>
