<svg width="390" height="390" viewBox="0 0 390 390" fill="none" xmlns="http://www.w3.org/2000/svg">
<ellipse cx="98.957" cy="124" rx="33.5" ry="34" fill="#FF521D"/>
<path d="M257.165 265.343C283.587 261.433 297.218 230.275 300.731 215.184C303.686 210.297 312.297 201.088 323.092 203.352C336.586 206.181 334.53 215.184 323.092 258.784C313.942 293.663 273.957 300.754 255.108 299.94C236.388 297.882 195.787 291.091 183.141 280.391C167.334 267.015 188.41 257.112 198.948 254.668C209.486 252.224 224.137 270.23 257.165 265.343Z" fill="#FE9CCD"/>
<circle cx="182.457" cy="144" r="34" fill="#2B00D6"/>
<ellipse cx="182.457" cy="184.5" rx="34" ry="33.5" fill="#2B00D6"/>
<ellipse cx="86.957" cy="109" rx="1.5" ry="2" fill="black"/>
<circle cx="108.457" cy="109" r="2" fill="black"/>
<ellipse cx="170.457" cy="126.5" rx="2" ry="2.5" fill="white"/>
<path d="M83.457 114L86.7422 117.087C93.8514 123.769 105.295 122.279 110.457 114V114" stroke="black" stroke-width="3"/>
<circle cx="184.457" cy="270" r="2" fill="black"/>
<ellipse cx="193.957" cy="126.5" rx="1.5" ry="2.5" fill="white"/>
<circle cx="197.457" cy="268" r="2" fill="black"/>
<path d="M178.457 130L178.509 130.29C179.333 134.863 185.969 134.62 186.457 130V130" stroke="white" stroke-width="3"/>
<path d="M185.457 274L186.18 275.032C188.593 278.476 193.86 277.89 195.457 274V274" stroke="black" stroke-width="3"/>
<ellipse cx="91.7405" cy="209.181" rx="33.7405" ry="33.1854" fill="#B8DE2A"/>
<ellipse cx="105.631" cy="181.444" rx="33.7405" ry="33.1854" fill="#B8DE2A"/>
<ellipse cx="135.405" cy="199.77" rx="33.7405" ry="32.6901" fill="#B8DE2A"/>
<ellipse cx="85.7855" cy="176.491" rx="1.98473" ry="1.48592" fill="black"/>
<ellipse cx="109.602" cy="176.491" rx="1.98473" ry="1.48592" fill="black"/>
<path d="M94.7148 179.958L94.7824 180.263C95.6277 184.087 101.158 183.841 101.661 179.958V179.958" stroke="black" stroke-width="3"/>
</svg>
