<svg width="390" height="128" viewBox="0 0 390 128" fill="none" xmlns="http://www.w3.org/2000/svg">
<rect width="390" height="128" fill="#FBF9F3"/>
<path d="M44.464 44.104C46.678 44.104 48.1 46.39 48.1 50.152C48.1 53.932 46.678 56.218 44.464 56.218C42.268 56.218 40.864 53.932 40.864 50.152C40.864 46.39 42.268 44.104 44.464 44.104ZM44.464 46.354C43.564 46.354 43.042 47.614 43.042 50.152C43.042 52.708 43.564 53.95 44.464 53.95C45.382 53.95 45.904 52.708 45.904 50.152C45.904 47.614 45.382 46.354 44.464 46.354ZM52.762 42.934H55.048V59.602H52.762V42.934ZM50.764 49.288H53.518V51.214H50.764V49.288ZM49.108 43.186H51.358V58.846H49.108V43.186ZM65.9546 46.966H69.1226V48.91H65.9546V46.966ZM68.4746 42.934H70.8686V52.834H68.4746V42.934ZM65.2166 53.194C68.7446 53.194 70.9226 54.4 70.9226 56.416C70.9226 58.45 68.7446 59.62 65.2166 59.62C61.6886 59.62 59.5106 58.45 59.5106 56.416C59.5106 54.4 61.6886 53.194 65.2166 53.194ZM65.2166 55.012C63.0566 55.012 61.9046 55.462 61.9046 56.416C61.9046 57.352 63.0566 57.802 65.2166 57.802C67.3946 57.802 68.5466 57.352 68.5466 56.416C68.5466 55.462 67.3946 55.012 65.2166 55.012ZM60.7706 44.608H62.7146V45.652C62.7146 48.838 61.2386 51.754 58.0526 52.834L56.8286 50.944C59.5826 50.008 60.7706 47.794 60.7706 45.652V44.608ZM61.2746 44.608H63.2006V45.652C63.2006 47.614 64.3346 49.648 66.9626 50.53L65.7926 52.42C62.6966 51.394 61.2746 48.622 61.2746 45.652V44.608ZM57.4766 43.942H66.4406V45.85H57.4766V43.942ZM83.8092 42.934H86.1852V59.602H83.8092V42.934ZM85.6452 49.432H88.5972V51.43H85.6452V49.432ZM73.0452 45.4H82.7472V47.308H73.0452V45.4ZM77.9232 48.244C80.3532 48.244 82.1532 49.9 82.1532 52.222C82.1532 54.544 80.3532 56.2 77.9232 56.2C75.4932 56.2 73.6932 54.544 73.6932 52.222C73.6932 49.9 75.4932 48.244 77.9232 48.244ZM77.9232 50.188C76.7892 50.188 75.9792 50.944 75.9792 52.222C75.9792 53.5 76.7892 54.256 77.9232 54.256C79.0572 54.256 79.8672 53.5 79.8672 52.222C79.8672 50.944 79.0572 50.188 77.9232 50.188ZM76.7172 43.204H79.1112V46.12H76.7172V43.204ZM91.1878 47.434H102.744V49.324H91.1878V47.434ZM89.3158 51.052H104.418V52.96H89.3158V51.052ZM91.1878 43.528H93.5638V48.37H91.1878V43.528ZM91.0258 57.334H102.834V59.242H91.0258V57.334ZM91.0258 54.292H93.4198V57.838H91.0258V54.292ZM113.538 44.644H115.5V45.688C115.5 48.838 114.006 51.664 110.82 52.69L109.578 50.836C112.368 49.936 113.538 47.776 113.538 45.688V44.644ZM114.024 44.644H115.968V45.688C115.968 47.65 117.102 49.684 119.802 50.548L118.578 52.402C115.464 51.394 114.024 48.676 114.024 45.688V44.644ZM110.226 43.906H119.226V45.814H110.226V43.906ZM120.558 42.934H122.952V52.978H120.558V42.934ZM122.286 46.966H125.166V48.928H122.286V46.966ZM111.828 53.698H122.952V59.602H120.558V55.624H111.828V53.698ZM132.365 52.096H134.759V54.634H132.365V52.096ZM126.029 50.728H141.095V52.618H126.029V50.728ZM127.343 43.384H139.763V45.292H127.343V43.384ZM127.469 47.794H139.637V49.702H127.469V47.794ZM129.467 44.086H131.861V49.036H129.467V44.086ZM135.245 44.086H137.639V49.036H135.245V44.086ZM127.775 54.004H139.295V59.422H127.775V54.004ZM136.955 55.858H130.133V57.532H136.955V55.858ZM152.879 53.608H155.255V59.62H152.879V53.608ZM146.561 52.906H161.627V54.85H146.561V52.906ZM152.861 45.922H154.967V46.318C154.967 49.108 152.555 51.538 148.145 52.06L147.317 50.188C151.079 49.756 152.861 47.866 152.861 46.318V45.922ZM153.167 45.922H155.273V46.318C155.273 47.83 157.073 49.756 160.817 50.188L159.971 52.06C155.579 51.556 153.167 49.036 153.167 46.318V45.922ZM147.911 44.842H160.259V46.732H147.911V44.842ZM152.879 42.97H155.255V45.49H152.879V42.97ZM166.486 46.192H168.43V46.84C168.43 49.882 166.954 52.6 163.786 53.59L162.634 51.718C165.334 50.872 166.486 48.856 166.486 46.84V46.192ZM166.918 46.192H168.88V46.84C168.88 48.712 170.05 50.638 172.75 51.448L171.598 53.32C168.448 52.384 166.918 49.756 166.918 46.84V46.192ZM163.21 44.896H172.156V46.768H163.21V44.896ZM166.486 43.06H168.88V45.598H166.486V43.06ZM171.634 47.776H175.504V49.738H171.634V47.776ZM174.298 42.952H176.692V55.282H174.298V42.952ZM165.694 57.406H177.07V59.314H165.694V57.406ZM165.694 54.256H168.088V58.666H165.694V54.256Z" fill="black"/>
<path d="M52.87 67.934H55.156V78.194H52.87V67.934ZM49.684 68.222H51.934V78.158H49.684V68.222ZM47.236 76.07H50.584V77.654H47.236V76.07ZM43.888 74.9H46.156V78.086H43.888V74.9ZM40.828 75.872L40.612 74.09C42.772 74.09 46.372 74.054 49.018 73.64L49.18 75.224C46.462 75.836 43.006 75.872 40.828 75.872ZM43.294 78.734H45.67V79.814H52.78V78.734H55.156V84.422H43.294V78.734ZM45.67 81.596V82.586H52.78V81.596H45.67ZM44.95 68.492C47.11 68.492 48.586 69.464 48.586 70.976C48.586 72.506 47.11 73.496 44.95 73.496C42.772 73.496 41.296 72.506 41.296 70.976C41.296 69.464 42.772 68.492 44.95 68.492ZM44.95 70.13C44.014 70.13 43.438 70.4 43.438 70.976C43.438 71.588 44.014 71.84 44.95 71.84C45.868 71.84 46.462 71.588 46.462 70.976C46.462 70.4 45.868 70.13 44.95 70.13ZM56.9186 76.898H72.0206V78.806H56.9186V76.898ZM63.4526 77.69H65.8646V81.2H63.4526V77.69ZM58.6646 82.406H70.3466V84.314H58.6646V82.406ZM58.6646 79.814H61.0406V83.306H58.6646V79.814ZM58.7726 74.108H70.3826V75.962H58.7726V74.108ZM58.7726 68.474H70.2566V70.328H61.1486V74.936H58.7726V68.474ZM60.4826 71.318H69.8786V73.1H60.4826V71.318ZM83.769 78.608H86.145V84.62H83.769V78.608ZM77.451 77.906H92.517V79.85H77.451V77.906ZM83.751 70.922H85.857V71.318C85.857 74.108 83.445 76.538 79.035 77.06L78.207 75.188C81.969 74.756 83.751 72.866 83.751 71.318V70.922ZM84.057 70.922H86.163V71.318C86.163 72.83 87.963 74.756 91.707 75.188L90.861 77.06C86.469 76.556 84.057 74.036 84.057 71.318V70.922ZM78.801 69.842H91.149V71.732H78.801V69.842ZM83.769 67.97H86.145V70.49H83.769V67.97ZM97.3756 71.192H99.3196V71.84C99.3196 74.882 97.8436 77.6 94.6756 78.59L93.5236 76.718C96.2236 75.872 97.3756 73.856 97.3756 71.84V71.192ZM97.8076 71.192H99.7696V71.84C99.7696 73.712 100.94 75.638 103.64 76.448L102.488 78.32C99.3376 77.384 97.8076 74.756 97.8076 71.84V71.192ZM94.0996 69.896H103.046V71.768H94.0996V69.896ZM97.3756 68.06H99.7696V70.598H97.3756V68.06ZM102.524 72.776H106.394V74.738H102.524V72.776ZM105.188 67.952H107.582V80.282H105.188V67.952ZM96.5836 82.406H107.96V84.314H96.5836V82.406ZM96.5836 79.256H98.9776V83.666H96.5836V79.256ZM110.532 69.59H117.714V71.48H110.532V69.59ZM112.674 74.36H115.032V80.012H112.674V74.36ZM116.76 69.59H119.118V70.94C119.118 72.56 119.118 74.576 118.668 77.348L116.328 77.132C116.76 74.468 116.76 72.542 116.76 70.94V69.59ZM120.54 67.934H122.934V84.602H120.54V67.934ZM122.232 74.63H125.166V76.61H122.232V74.63ZM109.902 81.236L109.686 79.31C112.62 79.31 116.508 79.256 119.784 78.842L119.91 80.588C116.544 81.164 112.8 81.236 109.902 81.236ZM137.797 78.302C141.397 78.302 143.701 79.49 143.701 81.47C143.701 83.414 141.397 84.602 137.797 84.602C134.197 84.602 131.893 83.414 131.893 81.47C131.893 79.49 134.197 78.302 137.797 78.302ZM137.797 80.102C135.547 80.102 134.269 80.57 134.269 81.47C134.269 82.352 135.547 82.802 137.797 82.802C140.047 82.802 141.325 82.352 141.325 81.47C141.325 80.57 140.047 80.102 137.797 80.102ZM132.073 68.672H142.621V70.562H132.073V68.672ZM130.381 75.368H145.393V77.276H130.381V75.368ZM135.943 72.47H138.319V75.854H135.943V72.47ZM141.235 68.672H143.611V70.04C143.611 71.354 143.611 72.776 143.161 74.504L140.785 74.252C141.235 72.542 141.235 71.336 141.235 70.04V68.672ZM149.945 78.464H152.393V84.602H149.945V78.464ZM155.705 78.464H158.153V84.602H155.705V78.464ZM146.543 77.204H161.645V79.13H146.543V77.204ZM154.049 68.492C157.613 68.492 160.079 69.95 160.079 72.236C160.079 74.486 157.613 75.944 154.049 75.944C150.503 75.944 148.037 74.486 148.037 72.236C148.037 69.95 150.503 68.492 154.049 68.492ZM154.049 70.4C151.871 70.4 150.485 71.048 150.485 72.236C150.485 73.406 151.871 74.054 154.049 74.054C156.245 74.054 157.613 73.406 157.613 72.236C157.613 71.048 156.245 70.4 154.049 70.4Z" fill="#FF521D"/>
<path fill-rule="evenodd" clip-rule="evenodd" d="M326.415 40.3188C333.935 50.9251 337.984 63.6211 338.001 76.6445L338.001 76.6448V94.4169V94.766H337.998C337.812 105.19 329.304 113.584 318.835 113.584C308.366 113.584 299.857 105.19 299.671 94.766H299.668V94.4169V76.7272H299.668C299.668 71.7466 297.868 66.8901 294.992 62.8344C292.116 58.7786 288.054 55.7257 283.37 54.101C278.687 52.4762 273.616 52.3606 268.864 53.7703C264.749 54.9911 261.051 57.3031 258.149 60.4472C254.59 65.2027 248.912 68.2805 242.515 68.2805C231.737 68.2805 223 59.5433 223 48.7654C223 43.2517 225.287 38.2721 228.963 34.7231C236.696 26.0315 246.729 19.8916 257.943 16.5649C270.396 12.8706 283.685 13.1736 295.958 17.4315C308.232 21.6893 318.878 29.6901 326.415 40.3188Z" fill="#FF521D"/>
<path d="M231.912 47.1445C231.912 48.2006 231.2 49.0567 230.321 49.0567C229.443 49.0567 228.73 48.2006 228.73 47.1445C228.73 46.0884 229.443 45.2323 230.321 45.2323C231.2 45.2323 231.912 46.0884 231.912 47.1445Z" fill="black"/>
<path fill-rule="evenodd" clip-rule="evenodd" d="M231.488 51.7061C232.136 51.4705 232.853 51.8056 233.089 52.4545C233.554 53.7351 235.365 53.7351 235.83 52.4545C236.066 51.8056 236.783 51.4705 237.431 51.7061C238.08 51.9417 238.415 52.6587 238.18 53.3076C236.918 56.784 232.001 56.784 230.739 53.3076C230.504 52.6587 230.839 51.9417 231.488 51.7061Z" fill="black"/>
<path fill-rule="evenodd" clip-rule="evenodd" d="M242.546 46.5832C243.139 46.9357 243.335 47.7026 242.982 48.2962C241.705 50.4476 238.666 50.6492 237.116 48.6842C236.689 48.1421 236.782 47.3561 237.324 46.9286C237.866 46.5011 238.652 46.594 239.079 47.136C239.542 47.7229 240.451 47.6633 240.833 47.0196C241.185 46.4261 241.952 46.2306 242.546 46.5832Z" fill="black"/>
</svg>
