<svg width="390" height="128" viewBox="0 0 390 128" fill="none" xmlns="http://www.w3.org/2000/svg">
<rect width="390" height="128" fill="#FBF9F3"/>
<path d="M52.888 42.934H55.156V59.602H52.888V42.934ZM50.89 49.324H53.662V51.268H50.89V49.324ZM49.306 43.186H51.538V58.846H49.306V43.186ZM43.69 45.526H45.508V47.002C45.508 51.124 44.608 54.76 41.836 56.434L40.396 54.598C42.898 53.158 43.69 50.206 43.69 47.002V45.526ZM44.176 45.526H46.012V47.002C46.012 49.936 46.858 52.708 49.342 54.004L47.974 55.822C45.166 54.31 44.176 50.872 44.176 47.002V45.526ZM40.936 44.626H48.514V46.552H40.936V44.626ZM60.6626 53.032H62.4626V53.644C62.4626 56.164 61.3466 58.468 58.7366 59.404L57.5666 57.658C59.7446 56.92 60.6626 55.264 60.6626 53.644V53.032ZM61.2746 53.032H62.9846V53.644C62.9846 55.264 63.7946 56.956 65.8286 57.802L64.8746 59.566C62.2286 58.576 61.2746 56.092 61.2746 53.644V53.032ZM66.7466 53.032H68.4566V53.644C68.4566 55.948 67.4666 58.54 64.8746 59.566L63.8846 57.802C65.9186 56.884 66.7466 55.12 66.7466 53.644V53.032ZM67.3046 53.032H69.1046V53.644C69.1046 55.372 70.0046 56.974 72.2006 57.658L71.0306 59.404C68.3846 58.504 67.3046 56.272 67.3046 53.644V53.032ZM57.7646 43.96H65.8466V51.448H57.7646V43.96ZM63.5066 45.85H60.1046V49.558H63.5066V45.85ZM68.3666 42.952H70.7786V52.438H68.3666V42.952ZM74.9892 47.434H86.5452V49.324H74.9892V47.434ZM73.1172 51.052H88.2192V52.96H73.1172V51.052ZM74.9892 43.528H77.3652V48.37H74.9892V43.528ZM74.8272 57.334H86.6352V59.242H74.8272V57.334ZM74.8272 54.292H77.2212V57.838H74.8272V54.292ZM100.872 42.934H103.266V55.12H100.872V42.934ZM97.9918 47.776H101.214V49.72H97.9918V47.776ZM95.6158 44.176H98.1358C98.1358 48.676 95.3458 51.97 90.5038 53.5L89.5138 51.592C93.3478 50.386 95.6158 48.082 95.6158 45.256V44.176ZM90.3778 44.176H97.1458V46.102H90.3778V44.176ZM92.3398 57.406H103.68V59.314H92.3398V57.406ZM92.3398 53.914H94.7518V58.504H92.3398V53.914ZM117.282 53.302C120.882 53.302 123.186 54.49 123.186 56.47C123.186 58.414 120.882 59.602 117.282 59.602C113.682 59.602 111.378 58.414 111.378 56.47C111.378 54.49 113.682 53.302 117.282 53.302ZM117.282 55.102C115.032 55.102 113.754 55.57 113.754 56.47C113.754 57.352 115.032 57.802 117.282 57.802C119.532 57.802 120.81 57.352 120.81 56.47C120.81 55.57 119.532 55.102 117.282 55.102ZM111.558 43.672H122.106V45.562H111.558V43.672ZM109.866 50.368H124.878V52.276H109.866V50.368ZM115.428 47.47H117.804V50.854H115.428V47.47ZM120.72 43.672H123.096V45.04C123.096 46.354 123.096 47.776 122.646 49.504L120.27 49.252C120.72 47.542 120.72 46.336 120.72 45.04V43.672ZM129.431 53.464H131.879V59.602H129.431V53.464ZM135.191 53.464H137.639V59.602H135.191V53.464ZM126.029 52.204H141.131V54.13H126.029V52.204ZM133.535 43.492C137.099 43.492 139.565 44.95 139.565 47.236C139.565 49.486 137.099 50.944 133.535 50.944C129.989 50.944 127.523 49.486 127.523 47.236C127.523 44.95 129.989 43.492 133.535 43.492ZM133.535 45.4C131.357 45.4 129.971 46.048 129.971 47.236C129.971 48.406 131.357 49.054 133.535 49.054C135.731 49.054 137.099 48.406 137.099 47.236C137.099 46.048 135.731 45.4 133.535 45.4ZM152.919 42.934H155.295V59.602H152.919V42.934ZM154.755 49.432H157.707V51.43H154.755V49.432ZM142.155 45.4H151.857V47.308H142.155V45.4ZM147.033 48.244C149.463 48.244 151.263 49.9 151.263 52.222C151.263 54.544 149.463 56.2 147.033 56.2C144.603 56.2 142.803 54.544 142.803 52.222C142.803 49.9 144.603 48.244 147.033 48.244ZM147.033 50.188C145.899 50.188 145.089 50.944 145.089 52.222C145.089 53.5 145.899 54.256 147.033 54.256C148.167 54.256 148.977 53.5 148.977 52.222C148.977 50.944 148.167 50.188 147.033 50.188ZM145.827 43.204H148.221V46.12H145.827V43.204ZM162.17 45.562H164.06V47.434C164.06 51.196 162.476 55.03 159.416 56.47L158.066 54.58C160.82 53.284 162.17 50.17 162.17 47.434V45.562ZM162.674 45.562H164.564V47.434C164.564 49.954 165.86 52.906 168.596 54.166L167.282 56.056C164.222 54.634 162.674 50.98 162.674 47.434V45.562ZM158.714 44.536H167.858V46.498H158.714V44.536ZM169.082 42.934H171.494V59.602H169.082V42.934ZM170.954 49.288H173.906V51.268H170.954V49.288Z" fill="black"/>
<path d="M52.87 67.934H55.156V78.194H52.87V67.934ZM49.684 68.222H51.934V78.158H49.684V68.222ZM47.236 76.07H50.584V77.654H47.236V76.07ZM43.888 74.9H46.156V78.086H43.888V74.9ZM40.828 75.872L40.612 74.09C42.772 74.09 46.372 74.054 49.018 73.64L49.18 75.224C46.462 75.836 43.006 75.872 40.828 75.872ZM43.294 78.734H45.67V79.814H52.78V78.734H55.156V84.422H43.294V78.734ZM45.67 81.596V82.586H52.78V81.596H45.67ZM44.95 68.492C47.11 68.492 48.586 69.464 48.586 70.976C48.586 72.506 47.11 73.496 44.95 73.496C42.772 73.496 41.296 72.506 41.296 70.976C41.296 69.464 42.772 68.492 44.95 68.492ZM44.95 70.13C44.014 70.13 43.438 70.4 43.438 70.976C43.438 71.588 44.014 71.84 44.95 71.84C45.868 71.84 46.462 71.588 46.462 70.976C46.462 70.4 45.868 70.13 44.95 70.13ZM56.9186 76.898H72.0206V78.806H56.9186V76.898ZM63.4526 77.69H65.8646V81.2H63.4526V77.69ZM58.6646 82.406H70.3466V84.314H58.6646V82.406ZM58.6646 79.814H61.0406V83.306H58.6646V79.814ZM58.7726 74.108H70.3826V75.962H58.7726V74.108ZM58.7726 68.474H70.2566V70.328H61.1486V74.936H58.7726V68.474ZM60.4826 71.318H69.8786V73.1H60.4826V71.318ZM80.349 72.542H82.149V72.974C82.149 76.43 81.141 79.904 78.477 81.434L77.127 79.634C79.503 78.248 80.349 75.53 80.349 72.974V72.542ZM80.817 72.542H82.617V72.974C82.617 75.476 83.481 78.014 85.839 79.274L84.543 81.038C81.843 79.634 80.817 76.376 80.817 72.974V72.542ZM77.685 70.742H85.263V72.668H77.685V70.742ZM80.349 68.492H82.617V72.29H80.349V68.492ZM89.601 67.934H91.869V84.602H89.601V67.934ZM87.603 74.324H90.375V76.268H87.603V74.324ZM86.019 68.186H88.251V83.846H86.019V68.186ZM94.5496 75.404H95.9716C99.4096 75.404 101.408 75.368 103.694 75.008L103.928 76.862C101.588 77.258 99.4816 77.294 95.9716 77.294H94.5496V75.404ZM94.5496 69.086H102.56V70.976H96.9256V76.178H94.5496V69.086ZM96.1876 72.254H102.074V74.09H96.1876V72.254ZM105.08 67.952H107.492V78.014H105.08V67.952ZM101.858 78.266C105.368 78.266 107.564 79.436 107.564 81.434C107.564 83.45 105.368 84.602 101.858 84.602C98.3296 84.602 96.1516 83.45 96.1516 81.434C96.1516 79.436 98.3296 78.266 101.858 78.266ZM101.858 80.102C99.6796 80.102 98.5456 80.534 98.5456 81.434C98.5456 82.352 99.6796 82.784 101.858 82.784C104.018 82.784 105.17 82.352 105.17 81.434C105.17 80.534 104.018 80.102 101.858 80.102ZM110.532 69.59H117.714V71.48H110.532V69.59ZM112.674 74.36H115.032V80.012H112.674V74.36ZM116.76 69.59H119.118V70.94C119.118 72.56 119.118 74.576 118.668 77.348L116.328 77.132C116.76 74.468 116.76 72.542 116.76 70.94V69.59ZM120.54 67.934H122.934V84.602H120.54V67.934ZM122.232 74.63H125.166V76.61H122.232V74.63ZM109.902 81.236L109.686 79.31C112.62 79.31 116.508 79.256 119.784 78.842L119.91 80.588C116.544 81.164 112.8 81.236 109.902 81.236ZM131.245 75.566H132.541C135.889 75.566 137.563 75.494 139.435 75.098L139.669 76.988C137.743 77.42 135.979 77.492 132.541 77.492H131.245V75.566ZM131.245 69.05H138.733V70.958H133.603V76.088H131.245V69.05ZM132.937 78.716H144.295V84.602H141.901V80.624H132.937V78.716ZM141.901 67.934H144.295V77.996H141.901V67.934ZM137.959 72.092H142.513V74H137.959V72.092ZM157.991 67.934H160.403V76.466H157.991V67.934ZM149.279 77.132H160.403V81.614H151.655V83.36H149.315V79.94H158.027V78.95H149.279V77.132ZM149.315 82.658H160.817V84.494H149.315V82.658ZM150.593 69.518H152.537V70.166C152.537 73.118 150.971 75.746 147.713 76.664L146.615 74.792C149.387 74.018 150.593 72.074 150.593 70.166V69.518ZM151.115 69.518H153.041V70.166C153.041 71.93 154.229 73.748 156.947 74.486L155.849 76.322C152.645 75.458 151.115 72.956 151.115 70.166V69.518ZM147.245 68.69H156.317V70.58H147.245V68.69Z" fill="#2B00D6"/>
<path fill-rule="evenodd" clip-rule="evenodd" d="M234.578 49.6175C241.344 44.7887 250.855 38 265.066 38C289.525 38 297.495 46.2124 297.495 46.2124C297.495 46.2124 309.346 59.6117 317.454 58.551C329.754 56.9419 341.851 61.0049 341.851 71.5696C341.851 82.8335 338.751 86.1337 328.244 88.4191C318.37 90.5667 298.341 85.5909 287.718 77.0089C284.286 74.2362 282.114 72.0645 280.443 70.3949C276.944 66.8968 275.65 65.6028 269.594 65.6028C263.979 65.6028 259.412 69.0404 255.131 72.2633C252.591 74.1746 250.153 76.0105 247.655 77.0089C240.946 79.6907 234.874 81.4462 230.402 75.5461C225.929 69.646 220.897 62.6735 230.402 52.4822C231.669 51.6933 233.054 50.7051 234.578 49.6175ZM233.023 64.9924C233.91 64.9924 234.628 64.1685 234.628 63.152C234.628 62.1356 233.91 61.3116 233.023 61.3116C232.137 61.3116 231.418 62.1356 231.418 63.152C231.418 64.1685 232.137 64.9924 233.023 64.9924ZM246.827 63.152C246.827 64.1685 246.109 64.9924 245.222 64.9924C244.336 64.9924 243.617 64.1685 243.617 63.152C243.617 62.1356 244.336 61.3116 245.222 61.3116C246.109 61.3116 246.827 62.1356 246.827 63.152ZM237.19 68.4111C237.038 68.0131 236.578 67.8078 236.161 67.9525C235.745 68.0972 235.53 68.5372 235.681 68.9352C236.81 71.8999 241.198 71.8999 242.326 68.9352C242.478 68.5372 242.263 68.0972 241.846 67.9525C241.43 67.8078 240.969 68.0131 240.818 68.4111C240.202 70.0297 237.806 70.0297 237.19 68.4111Z" fill="#2B00D6"/>
</svg>
