<svg width="51" height="27" viewBox="0 0 31 27" fill="none" xmlns="http://www.w3.org/2000/svg">
<path d="M30.25 5.44807C29.769 4.38195 29.0755 3.41584 28.2082 2.60382C27.3403 1.78938 26.317 1.14216 25.194 0.697347C24.0295 0.234273 22.7805 -0.0027542 21.5195 2.41448e-05C19.7504 2.41448e-05 18.0244 0.463761 16.5245 1.33971C16.1656 1.54925 15.8247 1.7794 15.5018 2.03016C15.1788 1.7794 14.8379 1.54925 14.4791 1.33971C12.9791 0.463761 11.2531 2.41448e-05 9.48407 2.41448e-05C8.2102 2.41448e-05 6.9758 0.23361 5.80958 0.697347C4.68283 1.14391 3.66732 1.78627 2.79534 2.60382C1.92694 3.41492 1.23324 4.38126 0.753559 5.44807C0.254775 6.5576 0 7.73584 0 8.94842C0 10.0923 0.24401 11.2843 0.72844 12.4969C1.13393 13.5102 1.71524 14.5614 2.45804 15.6228C3.63502 17.3026 5.25338 19.0544 7.26287 20.8304C10.5929 23.7743 13.8906 25.8078 14.0305 25.8903L14.881 26.4124C15.2578 26.6426 15.7422 26.6426 16.119 26.4124L16.9694 25.8903C17.1094 25.8044 20.4035 23.7743 23.7371 20.8304C25.7466 19.0544 27.3649 17.3026 28.5419 15.6228C29.2847 14.5614 29.8696 13.5102 30.2715 12.4969C30.756 11.2843 31 10.0923 31 8.94842C31.0036 7.73584 30.7488 6.5576 30.25 5.44807ZM15.5018 23.6952C15.5018 23.6952 2.72716 15.8598 2.72716 8.94842C2.72716 5.44807 5.75216 2.61069 9.48407 2.61069C12.1072 2.61069 14.3822 4.0122 15.5018 6.05952C16.6213 4.0122 18.8964 2.61069 21.5195 2.61069C25.2514 2.61069 28.2764 5.44807 28.2764 8.94842C28.2764 15.8598 15.5018 23.6952 15.5018 23.6952Z" fill="#FC7E7E"/>
</svg>
