<svg width="301" height="43" viewBox="0 0 301 43" fill="none" xmlns="http://www.w3.org/2000/svg">
<path d="M280.419 31.7158C280.419 35.179 279.121 37.8904 276.523 39.8498C273.926 41.8093 270.098 42.7891 265.04 42.7891C263.126 42.7891 261.349 42.6524 259.708 42.3789C258.068 42.1055 256.655 41.6954 255.47 41.1486C254.331 40.5562 253.42 39.8271 252.736 38.9612C252.098 38.0954 251.779 37.0701 251.779 35.8853C251.779 34.7917 252.007 33.8803 252.463 33.1512C252.919 32.3765 253.465 31.7385 254.103 31.2373C255.425 31.9664 256.929 32.6271 258.615 33.2195C260.346 33.7664 262.329 34.0398 264.561 34.0398C265.974 34.0398 267.045 33.8347 267.774 33.4246C268.549 33.0145 268.936 32.4676 268.936 31.7841C268.936 31.1461 268.663 30.6449 268.116 30.2803C267.569 29.9158 266.658 29.6196 265.382 29.3917L263.331 28.9816C259.367 28.2069 256.405 26.9993 254.445 25.3589C252.531 23.6728 251.574 21.2804 251.574 18.1817C251.574 16.4957 251.939 14.9691 252.668 13.602C253.397 12.2349 254.422 11.0957 255.744 10.1843C257.065 9.27295 258.637 8.56663 260.46 8.06537C262.329 7.56411 264.379 7.31348 266.612 7.31348C268.298 7.31348 269.87 7.45018 271.328 7.7236C272.832 7.95144 274.131 8.316 275.225 8.81726C276.318 9.31852 277.184 9.97927 277.822 10.7995C278.46 11.5742 278.779 12.5084 278.779 13.602C278.779 14.6501 278.574 15.5615 278.164 16.3362C277.799 17.0653 277.321 17.6805 276.728 18.1817C276.364 17.9539 275.817 17.726 275.088 17.4982C274.359 17.2248 273.561 16.9969 272.696 16.8146C271.83 16.5868 270.941 16.4045 270.03 16.2678C269.164 16.1311 268.366 16.0628 267.637 16.0628C266.134 16.0628 264.972 16.245 264.151 16.6096C263.331 16.9286 262.921 17.4526 262.921 18.1817C262.921 18.683 263.149 19.0931 263.604 19.4121C264.06 19.7311 264.926 20.0273 266.202 20.3007L268.321 20.7792C272.696 21.7817 275.794 23.1715 277.617 24.9487C279.485 26.6804 280.419 28.936 280.419 31.7158Z" fill="black" fill-opacity="0.87"/>
<path d="M237.28 41.5587C236.825 41.6954 236.095 41.8321 235.093 41.9688C234.136 42.1055 233.133 42.1739 232.085 42.1739C231.083 42.1739 230.171 42.1055 229.351 41.9688C228.577 41.8321 227.916 41.5587 227.369 41.1486C226.822 40.7385 226.389 40.1916 226.07 39.5081C225.797 38.779 225.66 37.8448 225.66 36.7056V19.3493C225.66 18.3012 225.653 17.6751 226.056 15.6637C226.284 14.5255 227.17 12.5704 227.899 11.978C228.82 11.0566 229.534 10.3666 230.582 9.91093C231.675 9.40967 232.837 8.97676 234.068 8.61221C235.298 8.24765 236.574 7.97424 237.895 7.79196C239.217 7.56412 240.538 7.4502 241.86 7.4502C244.047 7.4502 245.779 7.8831 247.055 8.74891C248.331 9.56916 248.969 10.9362 248.969 12.8501C248.969 13.4881 248.878 14.1261 248.695 14.764C248.513 15.3564 248.285 15.9033 248.012 16.4045C247.055 16.4045 246.075 16.4501 245.073 16.5412C244.07 16.6324 243.09 16.7691 242.133 16.9514C241.176 17.1336 240.265 17.3387 239.399 17.5665C238.579 17.7488 237.873 17.9767 237.28 18.2501V41.5587Z" fill="black" fill-opacity="0.87"/>
<path d="M207.08 42.7217C204.392 42.7217 201.886 42.3571 199.562 41.628C197.283 40.8534 195.278 39.7141 193.546 38.2103C191.86 36.7066 190.516 34.8154 189.514 32.537C188.557 30.2585 188.078 27.5927 188.078 24.5396C188.078 21.532 188.557 18.9574 189.514 16.8156C190.516 14.6283 191.815 12.8511 193.41 11.484C195.005 10.0714 196.827 9.04609 198.878 8.40812C200.929 7.72458 203.025 7.38281 205.167 7.38281C207.582 7.38281 209.769 7.74737 211.728 8.47647C213.734 9.20558 215.442 10.2081 216.855 11.484C218.313 12.76 219.43 14.2865 220.204 16.0637C221.025 17.8409 221.435 19.7776 221.435 21.8738C221.435 23.4232 221.002 24.608 220.136 25.4282C219.27 26.2484 218.063 26.7725 216.513 27.0003L199.63 29.5294C200.131 31.0332 201.156 32.1724 202.706 32.9471C204.255 33.6762 206.032 34.0408 208.037 34.0408C209.906 34.0408 211.66 33.8129 213.301 33.3572C214.987 32.856 216.354 32.2864 217.402 31.6484C218.131 32.1041 218.746 32.742 219.247 33.5623C219.749 34.3825 219.999 35.2484 219.999 36.1597C219.999 38.2103 219.042 39.7369 217.128 40.7394C215.67 41.5141 214.03 42.0382 212.207 42.3116C210.384 42.585 208.675 42.7217 207.08 42.7217ZM205.167 15.8587C204.073 15.8587 203.116 16.041 202.296 16.4055C201.521 16.7701 200.883 17.2485 200.382 17.8409C199.881 18.3878 199.493 19.0257 199.22 19.7548C198.992 20.4384 198.855 21.1447 198.81 21.8738L210.498 19.9599C210.361 19.0485 209.86 18.1371 208.994 17.2257C208.129 16.3144 206.853 15.8587 205.167 15.8587Z" fill="black" fill-opacity="0.87"/>
<path d="M172.088 20.5751C172.088 19.1624 171.678 18.1371 170.858 17.4992C170.083 16.8156 169.012 16.4739 167.645 16.4739C166.734 16.4739 165.822 16.5878 164.911 16.8156C164.045 17.0435 163.293 17.3852 162.655 17.8409V41.5597C162.2 41.6964 161.47 41.8331 160.468 41.9698C159.511 42.1065 158.508 42.1749 157.46 42.1749C156.458 42.1749 155.546 42.1065 154.726 41.9698C153.952 41.8331 153.291 41.5597 152.744 41.1496C152.197 40.7394 151.764 40.1926 151.445 39.5091C151.172 38.78 151.035 37.8458 151.035 36.7066V16.2004C151.035 14.9701 151.286 13.9676 151.787 13.1929C152.334 12.4182 153.063 11.7119 153.974 11.0739C155.524 9.98026 157.46 9.09166 159.784 8.40812C162.154 7.72458 164.774 7.38281 167.645 7.38281C172.794 7.38281 176.759 8.52204 179.539 10.8005C182.318 13.0334 183.708 16.1549 183.708 20.165V41.5597C183.253 41.6964 182.523 41.8331 181.521 41.9698C180.564 42.1065 179.561 42.1749 178.513 42.1749C177.511 42.1749 176.599 42.1065 175.779 41.9698C175.005 41.8331 174.344 41.5597 173.797 41.1496C173.25 40.7394 172.817 40.1926 172.498 39.5091C172.225 38.78 172.088 37.8458 172.088 36.7066V20.5751Z" fill="black" fill-opacity="0.87"/>
<path d="M133.608 20.5751C133.608 19.1624 133.198 18.1371 132.377 17.4992C131.603 16.8156 130.532 16.4739 129.165 16.4739C128.253 16.4739 127.342 16.5878 126.43 16.8156C125.565 17.0435 124.813 17.3852 124.175 17.8409V41.5597C123.719 41.6964 122.99 41.8331 121.988 41.9698C121.031 42.1065 120.028 42.1749 118.98 42.1749C117.977 42.1749 117.066 42.1065 116.246 41.9698C115.471 41.8331 114.81 41.5597 114.264 41.1496C113.717 40.7394 113.284 40.1926 112.965 39.5091C112.691 38.78 112.555 37.8458 112.555 36.7066V16.2004C112.555 14.9701 112.805 13.9676 113.307 13.1929C113.853 12.4182 114.583 11.7119 115.494 11.0739C117.043 9.98026 118.98 9.09166 121.304 8.40812C123.674 7.72458 126.294 7.38281 129.165 7.38281C134.314 7.38281 138.278 8.52204 141.058 10.8005C143.838 13.0334 145.228 16.1549 145.228 20.165V41.5597C144.772 41.6964 144.043 41.8331 143.04 41.9698C142.083 42.1065 141.081 42.1749 140.033 42.1749C139.03 42.1749 138.119 42.1065 137.299 41.9698C136.524 41.8331 135.863 41.5597 135.316 41.1496C134.77 40.7394 134.337 40.1926 134.018 39.5091C133.744 38.78 133.608 37.8458 133.608 36.7066V20.5751Z" fill="black" fill-opacity="0.87"/>
<path d="M108.247 25.0181C108.247 27.8434 107.814 30.3725 106.948 32.6053C106.083 34.7927 104.852 36.6382 103.257 38.142C101.708 39.6458 99.8395 40.785 97.6522 41.5597C95.4649 42.3344 93.027 42.7217 90.3384 42.7217C87.6498 42.7217 85.2118 42.3116 83.0245 41.4913C80.8372 40.6711 78.9461 39.5091 77.3512 38.0053C75.8018 36.4559 74.5942 34.5876 73.7284 32.4003C72.8626 30.213 72.4297 27.7522 72.4297 25.0181C72.4297 22.3295 72.8626 19.8915 73.7284 17.7042C74.5942 15.5169 75.8018 13.6714 77.3512 12.1676C78.9461 10.6182 80.8372 9.43343 83.0245 8.61318C85.2118 7.79294 87.6498 7.38281 90.3384 7.38281C93.027 7.38281 95.4649 7.81572 97.6522 8.68153C99.8395 9.50178 101.708 10.6866 103.257 12.2359C104.852 13.7397 106.083 15.5853 106.948 17.7726C107.814 19.9599 108.247 22.3751 108.247 25.0181ZM84.3232 25.0181C84.3232 27.7978 84.8473 29.9395 85.8954 31.4433C86.989 32.9015 88.4928 33.6306 90.4067 33.6306C92.3206 33.6306 93.7788 32.8788 94.7814 31.375C95.8294 29.8712 96.3535 27.7522 96.3535 25.0181C96.3535 22.2839 95.8294 20.1877 94.7814 18.7295C93.7333 17.2257 92.2523 16.4739 90.3384 16.4739C88.4245 16.4739 86.9435 17.2257 85.8954 18.7295C84.8473 20.1877 84.3232 22.2839 84.3232 25.0181Z" fill="black" fill-opacity="0.87"/>
<path d="M69.5595 25.0181C69.5595 27.8434 69.1266 30.3725 68.2608 32.6053C67.395 34.7927 66.1646 36.6382 64.5697 38.142C63.0204 39.6458 61.152 40.785 58.9647 41.5597C56.7774 42.3344 54.3394 42.7217 51.6509 42.7217C48.9623 42.7217 46.5243 42.3116 44.337 41.4913C42.1497 40.6711 40.2586 39.5091 38.6637 38.0053C37.1143 36.4559 35.9067 34.5876 35.0409 32.4003C34.1751 30.213 33.7422 27.7522 33.7422 25.0181C33.7422 22.3295 34.1751 19.8915 35.0409 17.7042C35.9067 15.5169 37.1143 13.6714 38.6637 12.1676C40.2586 10.6182 42.1497 9.43343 44.337 8.61318C46.5243 7.79294 48.9623 7.38281 51.6509 7.38281C54.3394 7.38281 56.7774 7.81572 58.9647 8.68153C61.152 9.50178 63.0204 10.6866 64.5697 12.2359C66.1646 13.7397 67.395 15.5853 68.2608 17.7726C69.1266 19.9599 69.5595 22.3751 69.5595 25.0181ZM45.6357 25.0181C45.6357 27.7978 46.1598 29.9395 47.2079 31.4433C48.3015 32.9015 49.8053 33.6306 51.7192 33.6306C53.6331 33.6306 55.0913 32.8788 56.0939 31.375C57.142 29.8712 57.666 27.7522 57.666 25.0181C57.666 22.2839 57.142 20.1877 56.0939 18.7295C55.0458 17.2257 53.5648 16.4739 51.6509 16.4739C49.737 16.4739 48.256 17.2257 47.2079 18.7295C46.1598 20.1877 45.6357 22.2839 45.6357 25.0181Z" fill="black" fill-opacity="0.87"/>
<path d="M1.61122 9.77459C1.29224 9.27332 0.996037 8.58979 0.722623 7.72397C0.449208 6.85816 0.3125 5.94677 0.3125 4.98982C0.3125 3.21263 0.699838 1.93669 1.47451 1.16202C2.29476 0.38734 3.34285 0 4.61878 0H30.9463C31.2653 0.50126 31.8677 0.713632 32.7891 1.84283C34.6319 3.68566 33.3907 2.44439 35.2335 4.46491C36.1549 5.20864 37.9811 7.51805 37.1609 8.29272C36.3862 9.0674 35.6808 9.77459 34.4048 9.77459H23.8262V41.354C23.3249 41.4907 22.5275 41.6274 21.4338 41.7641C20.3857 41.9008 19.3376 41.9692 18.2895 41.9692C17.2414 41.9692 16.3073 41.8781 15.487 41.6958C14.7124 41.5591 14.0516 41.2857 13.5048 40.8755C12.9579 40.4654 12.5478 39.8958 12.2744 39.1667C12.001 38.4376 11.8643 37.4806 11.8643 36.2958V9.77459H1.61122Z" fill="black" fill-opacity="0.87"/>
<circle cx="294.243" cy="35.9352" r="6.4499" fill="#2B00D6"/>
</svg>
